<svg width="191" height="70" xmlns="http://www.w3.org/2000/svg" data-name="Layer 1">
 <title>medicine and healthcare 03 solid</title>

 <g>
  <title>Layer 1</title>
  <path fill="#233269" stroke="#233269" id="svg_1" d="m163.96724,2.84844l-16.84227,0a10.68624,10.68624 0 0 0 0.47616,2.14006l15.88995,0a10.68624,10.68624 0 0 0 0.47616,-2.14006z"/>
  <path fill="#233269" stroke="#233269" id="svg_2" d="m161.23332,9.26862a17.40838,17.40838 0 0 0 1.34289,-2.14006l-14.06554,0a17.52641,17.52641 0 0 0 1.35359,2.14006l11.36907,0z"/>
  <polygon fill="#233269" stroke="#233269" id="svg_3" points="156.76998561620712,46.719669342041016 160.29572719335556,44.57960891723633 151.29678004980087,44.57960891723633 154.8225216269493,46.719669342041016 156.76998561620712,46.719669342041016 "/>
  <path fill="#233269" stroke="#233269" id="svg_4" d="m165.65254,40.29949l-20.21287,0a15.0028,15.0028 0 0 0 2.28986,2.14006l15.63314,0a15.0028,15.0028 0 0 0 2.28986,-2.14006z"/>
  <path fill="#233269" stroke="#233269" id="svg_5" d="m167.76585,36.01937l-24.43948,0a7.67095,7.67095 0 0 0 0.68482,2.14006l23.06985,0a7.67095,7.67095 0 0 0 0.68482,-2.14006z"/>
  <path fill="#233269" stroke="#233269" id="svg_6" d="m167.08103,31.73925l-23.06985,0a7.67062,7.67062 0 0 0 -0.68482,2.14006l24.43948,0a7.67062,7.67062 0 0 0 -0.68482,-2.14006z"/>
  <path fill="#233269" stroke="#233269" id="svg_7" d="m163.36268,27.45913l-15.63314,0a15.00118,15.00118 0 0 0 -2.28986,2.14006l20.21287,0a15.00118,15.00118 0 0 0 -2.28986,-2.14006z"/>
  <polygon fill="#233269" stroke="#233269" id="svg_8" points="154.5725216269493,23.179004669189453 151.04142421483994,25.31906509399414 160.0510830283165,25.31906509399414 156.51998561620712,23.179004669189453 154.5725216269493,23.179004669189453 "/>
  <path fill="#233269" stroke="#233269" id="svg_9" d="m146.83071,67.05024l17.43079,0a10.42299,10.42299 0 0 0 -0.48151,-2.14006l-16.46776,0a10.42299,10.42299 0 0 0 -0.48151,2.14006z"/>
  <path fill="#233269" stroke="#233269" id="svg_10" d="m149.62884,60.63006a17.40716,17.40716 0 0 0 -1.38034,2.14006l14.59521,0a17.40716,17.40716 0 0 0 -1.38034,-2.14006l-11.83453,0z"/>
  <path fill="#233269" stroke="#233269" id="svg_11" d="m167.23754,0.70838a1.07008,1.07008 0 0 0 -1.07003,1.07003c0,4.86418 -3.15412,9.94229 -8.79437,14.35626c0.51049,0.34036 1.03307,0.67733 1.57742,1.00766l0.32792,0.199c5.79383,-4.7302 9.02909,-10.2159 9.02909,-15.56291a1.07008,1.07008 0 0 0 -1.07003,-1.07003z"/>
  <path fill="#233269" stroke="#233269" id="svg_12" d="m159.35152,52.51278l-0.90671,0.55027c-0.35525,0.21555 -0.69653,0.43532 -1.03715,0.65525c5.79849,4.41018 9.05663,9.51807 9.05663,14.40197a1.07003,1.07003 0 0 0 2.14006,0c-0.00002,-5.36794 -3.31526,-10.88434 -9.25283,-15.60749z"/>
  <path fill="#233269" stroke="#233269" id="svg_13" d="m147.28551,22.59253c-5.36844,3.25789 -8.32487,7.64617 -8.32487,12.35655s2.95669,9.09865 8.32487,12.35628l4.3179,2.62031q0.92429,-0.68325 1.91642,-1.34044l-5.12407,-3.10958c-4.70411,-2.85428 -7.29506,-6.59312 -7.29506,-10.52658c0,-3.93372 2.5907,-7.67229 7.29506,-10.52684l5.14985,-3.12509q-0.97949,-0.66469 -1.89181,-1.35543l-4.36829,2.65082z"/>
  <path fill="#da1a32" stroke="#da1a32" id="svg_14" d="m172.13157,34.94908c0,-4.71038 -2.95617,-9.09865 -8.32513,-12.35655l-5.96667,-3.62076c-8.20757,-4.98076 -12.91507,-11.24759 -12.91507,-17.19336a1.07003,1.07003 0 0 0 -2.14006,0c0,6.71146 5.0829,13.64497 13.9454,19.02307l5.96667,3.62076c4.70437,2.85455 7.29481,6.59313 7.29481,10.52684c0,3.93346 -2.59095,7.67229 -7.29533,10.52658l-6.47191,3.92797c-8.72979,5.29686 -13.73641,12.11884 -13.73641,18.71664a1.07003,1.07003 0 0 0 2.14006,0c0,-5.83187 4.63122,-11.98716 12.70661,-16.88693l6.47191,-3.92797c5.36844,-3.25763 8.32513,-7.6459 8.32513,-12.35628z"/>
  <path fill="#da1a32" stroke="#da1a32" id="svg_15" d="m135.21554,54.7449a6.91194,6.91194 0 0 0 -0.83655,-3.30394l3.06079,-2.32501a23.17417,23.17417 0 0 0 8.02274,6.50172q0.70338,-0.83997 1.49506,-1.65984a20.85444,20.85444 0 0 1 0.13127,-38.07641q-0.78127,-0.8253 -1.47518,-1.67107a23.15627,23.15627 0 0 0 -7.33082,5.55684l-4.76452,-3.4693a6.4121,6.4121 0 1 0 -1.22514,1.75516l4.64922,3.38541a22.93003,22.93003 0 0 0 -0.74449,25.93308l-3.11905,2.36923a6.94714,6.94714 0 1 0 2.13666,5.00414z"/>
  <path fill="#233269" stroke="#233269" id="svg_16" d="m182.29686,45.64964a7.46417,7.46417 0 0 0 -5.35688,2.26555l-1.63868,-1.19317a22.94643,22.94643 0 0 0 -1.24765,-25.41856l4.81192,-3.65517a5.38046,5.38046 0 1 0 -1.33219,-1.67588l-4.83189,3.67039a23.14758,23.14758 0 0 0 -7.22296,-5.43261q-0.69143,0.84592 -1.47528,1.67121a20.85443,20.85443 0 0 1 0.13137,38.07642q0.79204,0.81712 1.49203,1.65628a23.16822,23.16822 0 0 0 8.48962,-7.10701l1.56122,1.13684a7.4871,7.4871 0 1 0 6.61937,-3.9943z"/>
  <path id="svg_63" fill="#233269" d="m21.14992,14.69997c-8.13,0 -13.48,5.16 -13.48,12.89c0,7.73 5.5,12.89 13.73,12.89c2.33,0 6.25,-0.55 8.28,-1.34l0,5.55c-2.83,1.04 -7.09,1.73 -10.56,1.73c-11.35,0 -18.89,-7.54 -18.89,-18.84c0,-11.3 7.44,-18.84 18.59,-18.84c3.37,0 7.54,0.69 10.36,1.73l0,5.55c-2.18,-0.82 -5.84,-1.32 -8.03,-1.32z" class="st0"/>
  <path stroke="null" id="svg_64" d="m35.17992,11.24219l6.94,-1.84784l0,36.55562l-6.94,0l0,-34.70778z" opacity="undefined" fill="#233269"/>
  <path id="svg_65" fill="#233269" d="m56.19992,19.16997l0,26.77l-6.94,0l0,-26.77l6.94,0z" class="st0"/>
  <path id="svg_66" fill="#233269" d="m78.20992,24.11997c-5.5,0 -9.17,3.37 -9.17,8.43c0,5.06 3.72,8.43 9.32,8.43c1.83,0 4.51,-0.5 6.69,-1.24l0,5.11c-2.18,0.94 -5.7,1.59 -8.92,1.59c-8.53,0 -14.28,-5.55 -14.28,-13.88c0,-8.33 5.75,-13.88 14.28,-13.88c2.68,0 6.1,0.64 8.43,1.59l0,5.11c-1.79,-0.76 -4.37,-1.26 -6.35,-1.26z" class="st0"/>
  <path id="svg_67" fill="#233269" d="m97.63992,33.14997l0,12.79l-6.94,0l0,-37.18l6.94,-1.98l0,23.9l0.05,0c3.82,-3.87 7.14,-7.54 10.16,-11.5l8.18,0c-3.52,4.36 -7.29,8.38 -11.55,12.69c4.86,4.91 8.33,9.07 12.15,14.08l-8.13,0c-3.38,-4.57 -6.65,-8.44 -10.86,-12.8z" class="st0"/>
  <circle id="svg_68" fill="#da1a32" r="4.49" cy="11.42783" cx="52.57205" class="st1"/>
  <g id="svg_69"/>
  <g id="svg_89">
   <path id="svg_71" fill="#243268" d="m48.98951,52.18758c0,0.91 -0.62,1.51 -1.55,1.51l-1.15,0l0,1.63l-0.57,0l0,-4.63l1.73,0c0.92,0 1.54,0.6 1.54,1.49zm-0.58,0.02c0,-0.63 -0.41,-1.04 -1.02,-1.04l-1.09,0l0,2.06l1.09,0c0.61,0 1.02,-0.4 1.02,-1.02z" class="st4"/>
   <path id="svg_72" fill="#243268" d="m49.46951,53.66758c0,-1.03 0.69,-1.72 1.72,-1.72c1.03,0 1.72,0.69 1.72,1.72c0,1.04 -0.69,1.73 -1.72,1.73c-1.03,0 -1.72,-0.69 -1.72,-1.73zm2.87,0c0,-0.77 -0.46,-1.29 -1.15,-1.29c-0.69,0 -1.15,0.52 -1.15,1.29c0,0.78 0.46,1.3 1.15,1.3c0.69,0 1.15,-0.52 1.15,-1.3z" class="st4"/>
   <path id="svg_73" fill="#243268" d="m57.07951,55.39758l-0.05,0c-0.38,-0.79 -0.8,-1.77 -1.15,-2.69c-0.35,0.93 -0.77,1.9 -1.16,2.69l-0.05,0c-0.47,-1 -1.01,-2.26 -1.43,-3.39l0.58,0c0.24,0.8 0.58,1.67 0.9,2.42c0.33,-0.75 0.68,-1.62 0.93,-2.42l0.44,0c0.26,0.8 0.59,1.67 0.93,2.42c0.32,-0.75 0.65,-1.62 0.9,-2.42l0.58,0c-0.4,1.13 -0.95,2.39 -1.42,3.39z" class="st4"/>
   <path id="svg_74" fill="#243268" d="m61.90951,53.86758l-2.48,0c0.06,0.69 0.41,1.1 1.14,1.1c0.33,0 0.78,-0.08 1.13,-0.21l0,0.41c-0.33,0.14 -0.82,0.23 -1.24,0.23c-0.96,0 -1.59,-0.64 -1.59,-1.73c0,-1.03 0.61,-1.72 1.53,-1.72c0.91,0 1.52,0.68 1.52,1.68c0.01,0.07 0,0.18 -0.01,0.24zm-2.48,-0.35l1.95,0c-0.04,-0.7 -0.39,-1.15 -0.97,-1.15c-0.59,-0.01 -0.95,0.45 -0.98,1.15z" class="st4"/>
   <path id="svg_75" fill="#243268" d="m63.28951,52.58758l0,2.74l-0.54,0l0,-3.35c0.2,0 0.38,0.04 0.51,0.13c0.34,-0.11 0.75,-0.17 1.25,-0.17l0,0.5c-0.51,0.01 -0.92,0.07 -1.22,0.15z" class="st4"/>
   <path id="svg_76" fill="#243268" d="m67.78951,53.86758l-2.48,0c0.06,0.69 0.41,1.1 1.14,1.1c0.33,0 0.78,-0.08 1.13,-0.21l0,0.41c-0.33,0.14 -0.82,0.23 -1.24,0.23c-0.96,0 -1.59,-0.64 -1.59,-1.73c0,-1.03 0.61,-1.72 1.53,-1.72c0.91,0 1.52,0.68 1.52,1.68c0,0.07 0,0.18 -0.01,0.24zm-2.49,-0.35l1.95,0c-0.04,-0.7 -0.39,-1.15 -0.97,-1.15c-0.58,-0.01 -0.94,0.45 -0.98,1.15z" class="st4"/>
   <path id="svg_77" fill="#243268" d="m71.16951,55.22758c-0.28,0.11 -0.65,0.17 -1.01,0.17c-1.05,0 -1.75,-0.68 -1.75,-1.7c0,-1.05 0.65,-1.75 1.63,-1.75c0.41,0 0.81,0.13 1.09,0.34l0,-1.73l0.54,-0.15l0,4.96c-0.19,0 -0.37,-0.05 -0.5,-0.14zm-0.87,-0.26c0.25,0 0.56,-0.06 0.83,-0.16l0,-2.09c-0.27,-0.21 -0.62,-0.34 -0.96,-0.34c-0.73,0 -1.2,0.52 -1.2,1.3c0.01,0.77 0.52,1.29 1.33,1.29z" class="st4"/>
   <path id="svg_78" fill="#243268" d="m77.70951,53.69758c0,1.02 -0.69,1.7 -1.75,1.7c-0.35,0 -0.72,-0.06 -1.01,-0.17c-0.13,0.09 -0.3,0.14 -0.5,0.14l0,-4.81l0.54,-0.15l0,1.88c0.28,-0.21 0.67,-0.34 1.09,-0.34c0.98,0 1.63,0.7 1.63,1.75zm-0.56,-0.02c0,-0.78 -0.48,-1.3 -1.2,-1.3c-0.34,0 -0.69,0.13 -0.96,0.34l0,2.09c0.27,0.1 0.58,0.16 0.83,0.16c0.81,0 1.33,-0.52 1.33,-1.29z" class="st4"/>
   <path id="svg_79" fill="#243268" d="m79.09951,56.70758l-0.56,0c0.3,-0.55 0.6,-1.1 0.89,-1.65c-0.46,-0.93 -0.96,-2.05 -1.38,-3.05l0.58,0c0.31,0.83 0.69,1.74 1.06,2.53c0.37,-0.79 0.76,-1.7 1.06,-2.53l0.58,0c-0.77,1.89 -0.98,2.3 -2.23,4.7z" class="st4"/>
   <path id="svg_80" fill="#243268" d="m87.34951,55.33758l-0.68,0c-0.61,-0.7 -1.35,-1.43 -2.1,-2.09c0.26,0.05 0.52,0.06 0.78,0.06c0.64,0 1.05,-0.43 1.05,-1.06c0,-0.65 -0.42,-1.07 -1.06,-1.07l-1.11,0l0,4.16l-0.57,0l0,-4.63l1.76,0c0.94,0 1.57,0.59 1.57,1.48c0,0.84 -0.55,1.38 -1.27,1.47c0.53,0.47 1.08,1.03 1.63,1.68z" class="st4"/>
   <path id="svg_81" fill="#243268" d="m89.34951,53.22758l-0.27,-0.06c-0.71,-0.16 -1.26,-0.4 -1.26,-1.21c0,-0.85 0.59,-1.31 1.58,-1.31c0.43,0 0.93,0.09 1.4,0.28l0,0.43c-0.45,-0.16 -0.9,-0.26 -1.28,-0.26c-0.74,0 -1.13,0.28 -1.13,0.76c0,0.49 0.44,0.62 0.96,0.75l0.27,0.06c0.79,0.18 1.38,0.5 1.38,1.4c0,0.83 -0.59,1.33 -1.57,1.33c-0.47,0 -1.08,-0.11 -1.45,-0.33l0,-0.43c0.45,0.21 0.91,0.31 1.3,0.31c0.76,0 1.16,-0.31 1.16,-0.81c0.02,-0.54 -0.44,-0.76 -1.09,-0.91z" class="st4"/>
   <path id="svg_82" fill="#243268" d="m94.79951,54.21758l-2.4,0c-0.16,0.38 -0.31,0.75 -0.44,1.11l-0.61,0c0.64,-1.57 1.48,-3.32 2.23,-4.7l0.06,0c0.74,1.38 1.58,3.13 2.23,4.7l-0.61,0c-0.14,-0.36 -0.29,-0.73 -0.46,-1.11zm-1.2,-2.62c-0.33,0.67 -0.68,1.41 -1,2.15l2,0c-0.32,-0.74 -0.67,-1.48 -1,-2.15z" class="st4"/>
   <path id="svg_83" fill="#243268" d="m101.11951,55.21758c-0.36,0.11 -0.76,0.18 -1.1,0.18c-1.45,0 -2.27,-1 -2.27,-2.36c0,-1.45 0.93,-2.4 2.27,-2.4c0.44,0 1.01,0.11 1.43,0.26l0,0.44c-0.36,-0.14 -0.91,-0.24 -1.27,-0.24c-1.13,0 -1.85,0.76 -1.85,1.93c0,1.11 0.63,1.89 1.81,1.89c0.26,0 0.64,-0.06 0.96,-0.15l0,-1.55l-1.23,0l0,-0.47l1.8,0l0,2.61c-0.23,0.01 -0.41,-0.05 -0.55,-0.14z" class="st4"/>
   <path id="svg_84" fill="#243268" d="m103.16951,50.40758l0,4.93l-0.54,0l0,-4.78l0.54,-0.15z" class="st4"/>
   <path id="svg_85" fill="#243268" d="m104.01951,53.66758c0,-1.03 0.69,-1.72 1.72,-1.72c1.03,0 1.72,0.69 1.72,1.72c0,1.04 -0.69,1.73 -1.72,1.73c-1.03,0 -1.72,-0.69 -1.72,-1.73zm2.87,0c0,-0.77 -0.46,-1.29 -1.15,-1.29c-0.69,0 -1.15,0.52 -1.15,1.29c0,0.78 0.46,1.3 1.15,1.3c0.69,0 1.15,-0.52 1.15,-1.3z" class="st4"/>
   <path id="svg_86" fill="#243268" d="m111.55951,53.69758c0,1.02 -0.69,1.7 -1.75,1.7c-0.35,0 -0.72,-0.06 -1.01,-0.17c-0.13,0.09 -0.3,0.14 -0.5,0.14l0,-4.81l0.54,-0.15l0,1.88c0.28,-0.21 0.67,-0.34 1.09,-0.34c0.97,0 1.63,0.7 1.63,1.75zm-0.56,-0.02c0,-0.78 -0.48,-1.3 -1.2,-1.3c-0.34,0 -0.69,0.13 -0.96,0.34l0,2.09c0.27,0.1 0.58,0.16 0.83,0.16c0.81,0 1.33,-0.52 1.33,-1.29z" class="st4"/>
   <path id="svg_87" fill="#243268" d="m114.45951,55.23758c-0.33,0.11 -0.7,0.16 -1.05,0.16c-0.78,0 -1.28,-0.38 -1.28,-0.99c0,-0.62 0.51,-1 1.35,-1c0.29,0 0.63,0.04 0.93,0.12l0,-0.31c0,-0.53 -0.34,-0.84 -0.92,-0.84c-0.34,0 -0.75,0.06 -1.09,0.18l0,-0.41c0.33,-0.13 0.77,-0.21 1.2,-0.21c0.85,0 1.35,0.45 1.35,1.21l0,2.2c-0.17,0.02 -0.36,-0.04 -0.49,-0.11zm-0.85,-0.23c0.27,0 0.56,-0.04 0.81,-0.13l0,-0.97c-0.27,-0.09 -0.56,-0.13 -0.81,-0.13c-0.56,0 -0.91,0.24 -0.91,0.61c0,0.38 0.35,0.62 0.91,0.62z" class="st4"/>
   <path id="svg_88" fill="#243268" d="m116.51951,50.40758l0,4.93l-0.54,0l0,-4.78l0.54,-0.15z" class="st4"/>
  </g>
 </g>
</svg>