<?xml version="1.0" encoding="utf-8"?>
<svg id="master-artboard" viewBox="0 0 500 500" xmlns="http://www.w3.org/2000/svg" width="500px" height="500px" version="1.1" style="shape-rendering:geometricPrecision; text-rendering:geometricPrecision; image-rendering:optimizeQuality; fill-rule:evenodd; clip-rule:evenodd"><g transform="matrix(1.3911547073847121, 0, 0, 1.3911547073847121, -97.7885094310314, -27.5007702899852)"><g transform="matrix(0, 0.4430000483989716, -0.4430000483989716, 0, -6170.18359375, -615.4995727539064)" style="" fill="#000000" fill-opacity="1" fill-rule="evenodd" stroke-width="0.50099999" stroke-linejoin="bevel"><path d="m 1587.8252,-14638.783 0.3102,76.376 c 79.5857,-0.316 126.9958,12.269 159.4111,29.094 32.4154,16.826 51.8716,38.691 74.6576,65.517 22.786,26.826 48.7079,58.968 91.15,83.154 42.4421,24.186 99.2539,38.755 180.5338,38.403 l -0.3342,-76.376 c -72.2317,0.312 -113.5386,-11.973 -142.3696,-28.403 -28.831,-16.429 -47.3669,-38.658 -70.7671,-66.208 -23.4003,-27.55 -51.8541,-60.08 -97.6898,-83.871 -45.8356,-23.79 -107.0203,-38.035 -194.902,-37.686 z" style="text-indent:0;text-transform:none;direction:ltr;block-progression:tb;baseline-shift:baseline;color:#000000;enable-background:accumulate;" fill="#000000" fill-opacity="1" stroke="none" marker="none" visibility="visible" display="inline" overflow="visible"/><path d="m 2093.8879,-14638.783 c -81.2799,-0.352 -138.0917,14.217 -180.5338,38.403 -42.4421,24.186 -68.364,56.328 -91.15,83.154 -22.786,26.826 -42.2422,48.668 -74.6576,65.493 -32.4153,16.824 -79.8254,29.433 -159.4111,29.118 l -0.3102,76.376 c 87.8817,0.349 149.0664,-13.896 194.902,-37.687 45.8357,-23.79 74.2895,-56.321 97.6898,-83.87 23.4002,-27.55 41.9361,-49.803 70.7671,-66.233 28.831,-16.43 70.1379,-28.691 142.3696,-28.378 l 0.3342,-76.376 z" style="text-indent:0;text-transform:none;direction:ltr;block-progression:tb;baseline-shift:baseline;color:#000000;enable-background:accumulate;" fill="#000000" fill-opacity="1" stroke="none" marker="none" visibility="visible" display="inline" overflow="visible"/></g><g transform="matrix(0, 0.4430000483989716, -0.4430000483989716, 0, -6170.185546875, -614.6313476562501)" style="" fill="#000000" fill-opacity="1" fill-rule="evenodd" stroke-width="0.50099999" stroke-linejoin="bevel"><path d="m 3415.6431,-9845.9676 0,-332.9224 288.3192,166.461 z" transform="matrix(0.55515237,0,0,0.55515237,188.95353,-9042.1753)" style="" fill="#000000" fill-opacity="1" fill-rule="evenodd" stroke="none"/><path d="m 3415.6431,-9845.9676 0,-332.9224 288.3192,166.461 z" transform="matrix(0.55515237,0,0,0.55515237,188.95353,-8826.0087)" style="" fill="#000000" fill-opacity="1" fill-rule="evenodd" stroke="none"/><path d="m 3415.6431,-9845.9676 0,-332.9224 288.3192,166.461 z" transform="matrix(-0.55515237,0,0,0.55515237,3488.8395,-8826.0087)" style="" fill="#000000" fill-opacity="1" fill-rule="evenodd" stroke="none"/><path d="m 3415.6431,-9845.9676 0,-332.9224 288.3192,166.461 z" transform="matrix(-0.55515237,0,0,0.55515237,3488.8395,-9042.1753)" style="" fill="#000000" fill-opacity="1" fill-rule="evenodd" stroke="none"/></g></g></svg>