<svg width="99.99999999999999" height="92"
    xmlns="http://www.w3.org/2000/svg" version="1.1">

    <g>
        <title>Layer 1</title>
        <g id="svg_1">
            <path id="svg_2" overflow="visible" display="inline" visibility="visible" marker="none" fill-rule="evenodd" fill="#FFFFFF" d="m53.05842,37.42999a1.00001,1.0001 0 0 1 0.26571,0.041c3.95437,1.10339 8.94267,3.32483 13.40476,5.966c4.46205,2.64122 8.38555,5.62882 10.18835,8.62682a1.00002,1.0001 0 0 1 -1.71393,1.0309c-1.42016,-2.3617 -5.17238,-5.3795 -9.49305,-7.937c-4.3206,-2.55747 -9.22288,-4.72867 -12.92312,-5.76118a1.00001,1.0001 0 0 1 0.27128,-1.96654z"/>
            <path id="svg_3" overflow="visible" display="inline" visibility="visible" marker="none" fill-rule="evenodd" fill="#FFFFFF" d="m68.6506,3.40429l-10.74908,15.53123l1.03117,0c3.20453,0 5.81198,2.61829 5.81198,5.78126c0,3.19504 -2.60745,5.84377 -5.81198,5.84377l-2.31233,0c4.62678,1.50151 10.21327,3.76979 15.3737,6.78125c3.97513,2.31973 7.6911,5.07047 10.4366,8.28121c2.58381,3.6639 4.61392,5.5526 4.53086,11.125l0,19.375c-0.0368,2.9864 -1.83869,4.8694 -3.40593,6.1563c-2.06054,1.6542 -4.88268,3.0152 -8.28056,4.125c-6.7578,2.2072 -15.7482,3.4041 -25.12283,3.4375c-0.11728,0 -0.23496,0 -0.34374,0c-9.38349,-0.036 -18.36715,-1.2327 -25.12286,-3.4375c-3.40044,-1.1098 -6.25053,-2.4708 -8.31178,-4.125c-2.0728,-1.8091 -3.49377,-3.0659 -3.40597,-6.0938c0,-6.5391 0,-13.1401 0,-19.6562c0.03841,-4.0851 1.94116,-7.7854 4.78084,-11c2.86884,-3.24765 6.70702,-6.05565 10.78034,-8.40628c5.022,-2.89803 10.3563,-5.11696 14.68626,-6.56248l-2.21857,0c-3.17257,0 -5.78076,-2.63863 -5.78076,-5.84377c0,-3.17321 2.60819,-5.78126 5.78076,-5.78126l0.4062,0l-10.74908,-15.53123c-0.40379,-0.59365 0.09461,-1.55215 0.81245,-1.5625l36.3719,0c0.89731,-0.002 1.17131,1.00435 0.81241,1.5625zm-2.71853,0.43749l-32.5597,0l10.4366,15.09374l11.6865,0l10.4366,-15.09374zm-6.99938,17.09376l-17.93597,0c-2.06476,0 -3.78092,1.71546 -3.78092,3.78124c0,2.11447 1.71616,3.84375 3.78092,3.84375l17.93597,0c2.11351,0 3.81217,-1.71918 3.81217,-3.84375c0,-2.07602 -1.69866,-3.78124 -3.81217,-3.78124zm-8.93675,9.84373c-3.82351,0.72503 -12.69096,3.60642 -20.46699,8.09377c-3.94891,2.27884 -7.62346,4.96107 -10.28038,7.96877c-2.60953,2.9541 -4.22422,6.1741 -4.28088,9.625c0.00036,6.5057 0,13.0964 0,19.625c-0.10828,2.4472 1.51285,3.689 2.65603,4.625c1.77233,1.4224 4.43473,2.7199 7.68685,3.7812c6.48216,2.1156 15.34337,3.3159 24.59165,3.3438c0.06438,0 0.12784,0 0.18748,0c9.22779,-0.028 18.08344,-1.2283 24.56039,-3.3438c3.24957,-1.0613 5.8838,-2.3588 7.6556,-3.7812c1.46363,-1.436 2.64373,-2.3072 2.65602,-4.625c0,-6.5003 0,-13.0508 0,-19.5313c0.12926,-3.7211 -1.55133,-6.7199 -4.06215,-9.6562c-2.53339,-2.9627 -6.05972,-5.59957 -9.90542,-7.84376c-7.58951,-4.42903 -16.38942,-7.30439 -20.9982,-8.28128z"/>
        </g>
        <g id="svg_16">
            <line id="svg_7" y2="76.41317" x2="42.13366" y1="66.07446" x1="42.13366" stroke="#FFFFFF" fill="none"/>
            <line id="svg_8" y2="76.41317" x2="44.63366" y1="66.07446" x1="44.63366" stroke="#FFFFFF" fill="none"/>
            <line id="svg_9" y2="76.41317" x2="46.17267" y1="66.07446" x1="46.17267" stroke="#FFFFFF" fill="none"/>
            <line id="svg_10" y2="76.41317" x2="47.52701" y1="66.07446" x1="47.52701" stroke="#FFFFFF" fill="none"/>
            <line id="svg_11" y2="76.41317" x2="49.02701" y1="66.07446" x1="49.02701" stroke="#FFFFFF" fill="none"/>
            <line id="svg_12" y2="76.41317" x2="51.36034" y1="66.07446" x1="51.36034" stroke="#FFFFFF" fill="none"/>
            <line id="svg_13" y2="76.41317" x2="53.36034" y1="66.07446" x1="53.36034" stroke="#FFFFFF" fill="none"/>
            <line id="svg_14" y2="76.41317" x2="55.19367" y1="66.07446" x1="55.19367" stroke="#FFFFFF" fill="none"/>
            <line id="svg_15" y2="76.41317" x2="57.36034" y1="66.07446" x1="57.36034" stroke="#FFFFFF" fill="none"/>
        </g>
    </g>
</svg>