<svg width="100" height="68" xmlns="http://www.w3.org/2000/svg" version="1.1">

 <g>
  <title>Layer 1</title>
  <g id="svg_1">
   <path id="svg_2" overflow="visible" display="inline" visibility="visible" marker="none" fill="#000000" d="m96.32626,2.01305l0,2l0,16l-4,0l0,-14l-14,0l0,-4l16,0l2,0zm-74,0l0,4l-14,0l0,14l-4,0l0,-16l0,-2l2,0l16,0zm66,8l0,48.00005l-6,0l0,-48.00005l6,0zm-8,0l0,48.00005l-2,0l0,-48.00005l2,0zm-4,0l0,48.00005l-10,0l0,-48.00005l10,0zm-12,0l0,48.00005l-2,0l0,-48.00005l2,0zm-4,0l0,48.00005l-2,0l0,-48.00005l2,0zm-4,0l0,48.00005l-2,0l0,-48.00005l2,0zm-4,0l0,48.00005l-8,0l0,-48.00005l8,0zm-10,0l0,48.00005l-2,0l0,-48.00005l2,0zm-4,0l0,48.00005l-6,0l0,-48.00005l6,0zm-8,0l0,48.00005l-2,0l0,-48.00005l2,0zm-4,0l0,48.00005l-4,0l0,-48.00005l4,0zm-6,0l0,48.00005l-2,0l0,-48.00005l2,0zm-4,0l0,48.00005l-4,0l0,-48.00005l4,0zm80,37.99995l0,16.0001l0,2l-2,0l-16,0l0,-4l14,0l0,-14.0001l4,0zm-88,0l0,14.0001l14,0l0,4l-16,0l-2,0l0,-2l0,-16.0001l4,0z"/>
  </g>
 </g>
</svg>