<svg width="98" height="53.5"
    xmlns="http://www.w3.org/2000/svg" xml:space="preserve" enable-background="new 0 0 98 98" version="1.1">

    <g>
        <title>Layer 1</title>
        <path fill="#fff" id="svg_1" d="m96.29155,39.36689l-1.314,0c0.205,-2.39 0.521,-6.254 0.521,-8.184c0,-2.908 -1.919,-3.262 -1.919,-3.262s-5.512,-2.459 -6.317,-2.813c-0.809,-0.346 -1.062,-0.902 -1.062,-0.902l-2.51,-7.73l0,-6.724c0,-0.647 -0.149,-1.097 -0.442,-1.316c-0.264,-0.203 -0.553,-0.157 -0.63,-0.144l-1.549,0.088l-0.538,-1.641c0,0 1.354,0 1.256,-1.009c-0.104,-1.001 -2.662,-1.35 -2.662,-1.35s-72.499,0.196 -75.008,0.304c-2.508,0.099 -2.409,2.207 -2.409,2.207l0.454,19.17l0.81,19.236c0,0 7.991,0.503 9.434,0.699c1.102,0.149 1.304,-0.952 1.304,-0.952s1.047,-2.176 1.71,-3.016c0.227,-0.29 0.557,-0.7 1.033,-1.116c-0.492,0.966 -0.77,2.062 -0.77,3.223c0,3.941 3.193,7.133 7.126,7.133c3.85,0 6.988,-3.045 7.127,-6.869c0.037,0.152 0.076,0.279 0.088,0.393c0.201,1.354 1.264,1.559 1.264,1.559s37.799,0.295 39.297,0.295c1.516,0 1.816,-0.997 1.816,-0.997l1.769,-3.001c-0.113,0.479 -0.165,0.983 -0.165,1.488c0,3.941 3.19,7.133 7.127,7.133c3.933,0 7.13,-3.191 7.13,-7.133c0,-3.935 -3.197,-7.126 -7.13,-7.126c-1.136,0 -2.209,0.264 -3.161,0.744c0.941,-0.604 2.099,-1.021 3.513,-0.997c4.618,0.102 6.73,1.956 7.632,4.119c0.908,2.162 2.007,1.859 2.007,1.859s0.666,0 1.46,0l0,0.303c0,0.467 0.378,0.852 0.851,0.852l2.859,0c0.477,0 0.857,-0.385 0.857,-0.852l0,-2.812c-0.002,-0.479 -0.382,-0.859 -0.859,-0.859zm-73.483,8.59c-2.105,0 -3.815,-1.716 -3.815,-3.822s1.71,-3.808 3.815,-3.808c2.106,0 3.824,1.701 3.824,3.808s-1.717,3.822 -3.824,3.822zm59.835,-39.363l0.037,0c0,-0.007 0.201,-0.057 0.381,0.082c0.212,0.164 0.333,0.535 0.333,1.076l0,5.797l-2.238,-6.88l1.487,-0.075zm-21.189,13.255l0,-8.489c0,-0.939 0.762,-1.701 1.703,-1.701l9.836,0c0.948,0 1.718,0.762 1.718,1.701l0,8.489l-13.257,0zm19.677,18.478c2.112,0 3.819,1.701 3.819,3.808s-1.707,3.822 -3.819,3.822c-2.105,0 -3.809,-1.716 -3.809,-3.822s1.703,-3.808 3.809,-3.808zm-1.249,-16.825c-0.949,0 -1.71,-0.758 -1.71,-1.704l0,-10.746c0,-0.939 0.561,-1.703 1.501,-1.703c-0.08,0 1.216,-0.088 1.711,1.703l2.01,6.231l0,6.206c-0.08,0.013 -0.172,0.013 -0.253,0.013l-3.259,0zm3.807,-0.089l0,-5.197l1.161,3.583c0.001,0.744 -0.486,1.386 -1.161,1.614zm7.933,12.789c0,-0.442 0.358,-0.801 0.81,-0.801c0.439,0 0.806,0.358 0.806,0.801c0,0.448 -0.366,0.807 -0.806,0.807c-0.452,0 -0.81,-0.358 -0.81,-0.807z"/>
        <path fill="#fff" stroke="#000000" stroke-width="0.5" id="svg_2" d="m38.14679,11.98511c-0.00382,-0.01098 -0.00525,-0.02243 -0.01002,-0.03293a0.4772,0.4772 0 0 0 -0.08017,-0.12598l-4.29481,-4.77201a0.4772,0.4772 0 0 0 -0.35456,-0.15795l-19.08805,0a0.4772,0.4772 0 0 0 -0.35456,0.15795l-4.29481,4.77201a0.4772,0.4772 0 0 0 -0.08017,0.12598c-0.00477,0.0105 -0.0062,0.02195 -0.01002,0.03293a0.46241,0.46241 0 0 0 -0.0272,0.13505c0,0.00859 -0.00525,0.01622 -0.00525,0.02529l0,22.90566a0.4772,0.4772 0 0 0 0.4772,0.4772l27.67767,0a0.4772,0.4772 0 0 0 0.4772,-0.4772l0,-22.90566c0,-0.00907 -0.00477,-0.0167 -0.00525,-0.02529a0.46241,0.46241 0 0 0 -0.0272,-0.13505zm-1.51607,-0.31686l-9.51301,0l-0.76352,-3.81761l6.84068,0l3.43585,3.81761zm-15.15352,0.9544l4.77201,0l0,1.23404l-0.13982,-0.13982a0.4772,0.4772 0 0 0 -0.64804,-0.02481l-0.63802,0.54735l-0.64279,-0.57264a0.4772,0.4772 0 0 0 -0.65997,0.02434l-0.61702,0.63659l-0.61177,-0.61177a0.4772,0.4772 0 0 0 -0.67476,0l-0.13982,0.14077l0,-1.23404zm3.90351,-4.77201l0.76352,3.81761l-4.56204,0l0.76352,-3.81761l3.035,0zm-10.84917,0l6.84068,0l-0.76352,3.81761l-9.51301,0l3.43585,-3.81761zm6.94566,26.72327l0,-1.23404l0.13982,0.13982a0.4772,0.4772 0 0 0 0.67476,0l0.61177,-0.61177l0.61702,0.63659a0.4772,0.4772 0 0 0 0.65997,0.02434l0.64279,-0.57264l0.63802,0.54735a0.4772,0.4772 0 0 0 0.64804,-0.02481l0.13982,-0.13887l0,1.23404l-4.77201,0zm15.74764,0l-10.02123,0l0,-2.38601a0.4772,0.4772 0 0 0 -0.81458,-0.33738l-0.64184,0.64184l-0.62036,-0.53112a0.4772,0.4772 0 0 0 -0.628,0.00573l-0.61273,0.54496l-0.63468,-0.65806a0.4772,0.4772 0 0 0 -0.33881,-0.14316l-0.00382,0a0.4772,0.4772 0 0 0 -0.33738,0.13982l-0.61702,0.61702l-0.61702,-0.61702a0.4772,0.4772 0 0 0 -0.81458,0.33738l0,2.38601l-10.02123,0l0,-21.95126l10.02123,0l0,2.38601a0.4772,0.4772 0 0 0 0.81458,0.33738l0.61702,-0.61702l0.61702,0.61702a0.4772,0.4772 0 0 0 0.33738,0.13982l0.00382,0a0.4772,0.4772 0 0 0 0.33881,-0.14316l0.63611,-0.65615l0.61273,0.54496a0.4772,0.4772 0 0 0 0.628,0.00573l0.62036,-0.53112l0.64184,0.64184a0.4772,0.4772 0 0 0 0.81315,-0.33929l0,-2.38601l10.02123,0l0,21.95126z"/>
    </g>
</svg>