<?xml version="1.0" encoding="utf-8"?>
<svg id="master-artboard" viewBox="0 0 100 100" version="1.1" xmlns="http://www.w3.org/2000/svg" x="0px" y="0px" style="enable-background:new 0 0 1400 980;" width="100px" height="100px"><g transform="matrix(2.0794510535638118, 0, 0, 2.0794510535638118, 0.000002282572957312823, 12.434254999589974)"><rect id="ee-background" x="0" y="0" width="48.0896110534668" height="36.13044357299805" style="fill: white; fill-opacity: 0; pointer-events: none;"/><g transform="matrix(0.8480789661407471, 0, 0, 0.8480789661407471, -2.9999961853027344, -3.1030874252319336)"><g>
  <title>Layer 1</title>
  <g id="svg_1">
   <path id="svg_2" d="m17.3,37.78837c0.1,0.3 0.1,0.5 -0.1,0.8c-0.1,0.2 -0.3,0.4 -0.6,0.4c-0.3,0 -0.5,0 -0.7,-0.2l-1.6,-1.2l0.2,1.9c0,0.3 0,0.5 -0.2,0.7c-0.2,0.2 -0.4,0.3 -0.7,0.3c-0.3,0 -0.5,-0.1 -0.7,-0.3c-0.2,-0.2 -0.2,-0.5 -0.2,-0.7l0.2,-1.9l-1.6,1.2c-0.4,0.3 -0.9,0.3 -1.2,-0.1c0,0 -0.1,-0.1 -0.1,-0.1c-0.2,-0.2 -0.2,-0.5 -0.1,-0.8c0.1,-0.2 0.3,-0.4 0.5,-0.5l1.7,-0.8l-1.7,-0.8c-0.2,-0.1 -0.4,-0.3 -0.5,-0.6c-0.1,-0.2 0,-0.5 0.1,-0.7c0.1,-0.2 0.4,-0.4 0.6,-0.5c0.3,0 0.5,0 0.7,0.2l1.6,1.2l-0.2,-1.9c0,-0.3 0.1,-0.5 0.2,-0.7c0.2,-0.2 0.4,-0.3 0.7,-0.3c0.5,0 0.9,0.4 0.9,0.9c0,0.1 0,0.1 0,0.2l-0.2,1.9l1.6,-1.1c0.2,-0.2 0.5,-0.2 0.7,-0.2c0.3,0 0.5,0.2 0.6,0.5c0.2,0.2 0.2,0.5 0.1,0.8c-0.1,0.2 -0.3,0.4 -0.5,0.5l-1.8,0.6l1.7,0.8c0.3,0.1 0.5,0.3 0.6,0.5z" style="fill: rgb(255, 255, 255);"/>
   <path id="svg_3" d="m26.6,37.78837c0.1,0.3 0.1,0.5 -0.1,0.8c-0.1,0.2 -0.3,0.4 -0.6,0.4c-0.3,0 -0.5,0 -0.7,-0.2l-1.6,-1.2l0.2,1.9c0,0.3 0,0.5 -0.2,0.7c-0.2,0.2 -0.4,0.3 -0.7,0.3c-0.3,0 -0.5,-0.1 -0.7,-0.3c-0.2,-0.2 -0.2,-0.5 -0.2,-0.7l0.2,-1.9l-1.6,1.2c-0.2,0.2 -0.5,0.2 -0.7,0.2c-0.3,-0.1 -0.5,-0.2 -0.6,-0.4c-0.2,-0.2 -0.2,-0.5 -0.1,-0.8c0.1,-0.2 0.3,-0.4 0.5,-0.5l1.7,-0.8l-1.7,-0.8c-0.2,-0.1 -0.4,-0.3 -0.5,-0.6c-0.1,-0.2 0,-0.5 0.1,-0.7c0.1,-0.2 0.4,-0.4 0.6,-0.5c0.3,0 0.5,0 0.7,0.2l1.6,1.2l-0.2,-1.9c0,-0.3 0.1,-0.5 0.2,-0.7c0.2,-0.2 0.4,-0.3 0.7,-0.3c0.5,0 0.9,0.4 0.9,0.9c0,0.1 0,0.1 0,0.2l-0.2,1.9l1.6,-1.1c0.2,-0.2 0.5,-0.2 0.7,-0.2c0.3,0 0.5,0.2 0.6,0.5c0.2,0.2 0.2,0.5 0.1,0.8c-0.1,0.2 -0.3,0.4 -0.5,0.5l-1.7,0.6l1.7,0.8c0.3,0.1 0.5,0.3 0.5,0.5z" style="fill: rgb(255, 255, 255);"/>
   <path id="svg_4" d="m35.6,37.78837c0.1,0.3 0.1,0.5 -0.1,0.8c-0.1,0.2 -0.3,0.4 -0.6,0.4c-0.3,0 -0.5,0 -0.7,-0.2l-1.6,-1.2l0.2,1.9c0,0.3 0,0.5 -0.2,0.7c-0.2,0.2 -0.4,0.3 -0.7,0.3c-0.3,0 -0.5,-0.1 -0.7,-0.3c-0.2,-0.2 -0.2,-0.5 -0.2,-0.7l0.2,-1.9l-1.6,1.2c-0.4,0.3 -0.9,0.3 -1.2,-0.1c0,0 -0.1,-0.1 -0.1,-0.1c-0.2,-0.2 -0.2,-0.5 -0.1,-0.8c0.1,-0.2 0.3,-0.4 0.5,-0.5l1.7,-0.8l-1.7,-0.8c-0.2,-0.1 -0.4,-0.3 -0.5,-0.6c-0.1,-0.2 0,-0.5 0.1,-0.7c0.1,-0.2 0.4,-0.4 0.6,-0.5c0.3,0 0.5,0 0.7,0.2l1.6,1.2l-0.2,-1.9c0,-0.3 0.1,-0.5 0.2,-0.7c0.2,-0.2 0.4,-0.3 0.7,-0.3c0.5,0 0.9,0.4 0.9,0.9c0,0.1 0,0.1 0,0.2l-0.2,1.9l1.6,-1.1c0.2,-0.2 0.5,-0.2 0.7,-0.2c0.3,0 0.5,0.2 0.6,0.5c0.2,0.2 0.2,0.5 0.1,0.8c-0.1,0.2 -0.3,0.4 -0.5,0.5l-1.7,0.6l1.7,0.8c0.3,0.1 0.5,0.3 0.5,0.5z" style="fill: rgb(255, 255, 255);"/>
   <path id="svg_5" d="m44.6,37.78837c0.1,0.3 0.1,0.5 -0.1,0.8c-0.1,0.2 -0.3,0.4 -0.6,0.4c-0.3,0 -0.5,0 -0.7,-0.2l-1.6,-1.2l0.2,1.9c0,0.3 0,0.5 -0.2,0.7c-0.2,0.2 -0.4,0.3 -0.7,0.3c-0.3,0 -0.5,-0.1 -0.7,-0.3c-0.2,-0.2 -0.2,-0.5 -0.2,-0.7l0.2,-1.9l-1.6,1.2c-0.4,0.3 -0.9,0.3 -1.2,-0.1c0,0 -0.1,-0.1 -0.1,-0.1c-0.2,-0.2 -0.2,-0.5 -0.1,-0.8c0.1,-0.2 0.3,-0.4 0.5,-0.5l1.7,-0.8l-1.7,-0.8c-0.2,-0.1 -0.4,-0.3 -0.5,-0.6c-0.1,-0.2 0,-0.5 0.1,-0.7c0.1,-0.2 0.4,-0.4 0.6,-0.5c0.3,0 0.5,0 0.7,0.2l1.6,1.2l-0.2,-1.9c0,-0.3 0.1,-0.5 0.2,-0.7c0.2,-0.2 0.4,-0.3 0.7,-0.3c0.5,0 0.9,0.4 0.9,0.9c0,0.1 0,0.1 0,0.2l-0.2,1.9l1.6,-1.1c0.2,-0.2 0.5,-0.2 0.7,-0.2c0.3,0 0.5,0.2 0.6,0.5c0.2,0.2 0.2,0.5 0.1,0.8c-0.1,0.2 -0.3,0.4 -0.5,0.5l-1.7,0.6l1.7,0.8c0.3,0.1 0.5,0.3 0.5,0.5z" style="fill: rgb(255, 255, 255);"/>
   <path id="svg_6" d="m53,40.48837l-6,0c-0.6,0 -1,-0.4 -1,-1s0.4,-1 1,-1l6,0c0.6,0 1,0.4 1,1s-0.4,1 -1,1z" style="fill: rgb(255, 255, 255);"/>
   <path id="svg_7" d="m40.4,23.58837c-0.1,0.4 -0.5,0.7 -0.9,0.7c-0.1,0 -0.2,0 -0.3,0l-3,-1c-0.3,-0.1 -0.5,-0.3 -0.7,-0.6c-0.1,-0.3 -0.2,-0.6 -0.1,-0.9l0.9,-3.1c0.1,-0.5 0.7,-0.8 1.2,-0.7c0,0 0,0 0,0c0.5,0.2 0.8,0.7 0.6,1.2l-0.3,1.3c1.7,-1.5 2.8,-3.7 2.8,-5.9c0.1,-3.2 -1.7,-6.1 -4.6,-7.4c-0.9,-0.4 -1.9,-0.6 -2.8,-0.6l-0.2,0c-0.6,0 -1,-0.4 -1,-1s0.4,-1 1,-1l0,0l0,0l0.2,0c0.6,0 1.2,0.1 1.8,0.2c0.6,0.1 1.2,0.3 1.8,0.6c5,2.3 7.2,8.3 4.9,13.3c-0.6,1.4 -1.6,2.6 -2.7,3.5l0.9,0.3c0.3,0.1 0.6,0.6 0.5,1.1z" style="fill: rgb(255, 255, 255);"/>
   <path id="svg_8" d="m32,23.48837c0,0.5 -0.4,1 -1,1c0,0 0,0 0,0l0,0l0,0l-0.2,0c-0.6,0 -1.2,-0.1 -1.8,-0.2c-0.6,-0.1 -1.2,-0.3 -1.8,-0.6c-5,-2.3 -7.2,-8.3 -4.9,-13.3c0.7,-1.4 1.7,-2.7 2.9,-3.7l-1.1,-0.4c-0.5,-0.2 -0.8,-0.7 -0.6,-1.2c0.1,-0.5 0.7,-0.8 1.2,-0.7c0,0 0,0 0,0l3,1c0.3,0.1 0.5,0.3 0.7,0.6c0.1,0.3 0.2,0.6 0.1,0.9l-0.9,3.1c-0.1,0.4 -0.5,0.7 -0.9,0.7c-0.1,0 -0.2,0 -0.3,0c-0.5,-0.2 -0.8,-0.7 -0.6,-1.2l0.2,-0.8c-1.7,1.5 -2.7,3.6 -2.7,5.9c-0.1,3.2 1.7,6.1 4.6,7.4c0.9,0.4 1.9,0.6 2.8,0.6l0.3,0c0.6,-0.1 1,0.4 1,0.9z" style="fill: rgb(255, 255, 255);"/>
   <path id="svg_9" d="m51,45.48837l-38,0c-5,0 -9,-4 -9,-9s4,-9 9,-9l38,0c5,0 9,4 9,9s-4,9 -9,9zm-38,-16c-3.9,0 -7,3.1 -7,7s3.1,7 7,7l38,0c3.9,0 7,-3.1 7,-7s-3.1,-7 -7,-7l-38,0z" style="fill: rgb(255, 255, 255);"/>
  </g>
 </g></g></g></svg>