<?xml version="1.0" encoding="utf-8"?>
<svg id="master-artboard" viewBox="0 0 100 100" version="1.1" xmlns="http://www.w3.org/2000/svg" x="0px" y="0px" style="enable-background:new 0 0 1400 980;" width="100px" height="100px"><g transform="matrix(4.299913335442196, 0, 0, 4.299913335442196, 0.000002282572943101968, 0.6288769343736504)"><rect id="ee-background" x="0" y="0" width="23.25628089904785" height="22.963775634765625" style="fill: white; fill-opacity: 0; pointer-events: none;"/><title>Layer 1</title><title>Layer 1</title><title>93all</title><path d="M61.06,30.5A11.06,11.06,0,1,0,50,41.62,11.1,11.1,0,0,0,61.06,30.5Zm-18.12,0A7.06,7.06,0,1,1,50,37.62,7.1,7.1,0,0,1,42.94,30.5Z" transform="matrix(0.25589612126350403, 0, 0, 0.25589612126350403, -1.1666657030582428, -1.1782875061035156)" style="fill: rgb(255, 255, 255);"/><path d="M11.78,58.36l-6,33.25a2,2,0,0,0,2,2.35h84.5a2,2,0,0,0,2-2.35l-6-33.25a2,2,0,0,0-2-1.65H65.47l5.21-7a27.6,27.6,0,0,0,5.63-18.26C75.35,17.21,63.69,6,49.75,6S24.15,17.21,23.19,31.49a27.6,27.6,0,0,0,5.63,18.26l5.21,7H13.75A2,2,0,0,0,11.78,58.36Zm15.4-26.61C27.9,21.08,36.54,10,49.75,10s21.85,11,22.57,21.73a23.6,23.6,0,0,1-4.85,15.6L49.75,71.07,32,47.36A23.6,23.6,0,0,1,27.18,31.76Zm9.84,29L48.15,75.61a2,2,0,0,0,3.21,0L62.48,60.72h22.1L89.86,90H10.14l5.28-29.25Z" transform="matrix(0.25589612126350403, 0, 0, 0.25589612126350403, -1.1666657030582428, -1.1782875061035156)" style="fill: rgb(255, 255, 255);"/></g></svg>