<?xml version="1.0" encoding="utf-8"?>
<svg id="master-artboard" viewBox="0 0 100 100" version="1.1" xmlns="http://www.w3.org/2000/svg" x="0px" y="0px" style="enable-background:new 0 0 1400 980;" width="100px" height="100px"><g transform="matrix(4.354684595010878, 0, 0, 4.354684595010878, 13.878732469047812, -5.23610708569322e-7)"><rect id="ee-background" x="0" y="0" width="16.58961296081543" height="22.963775634765625" style="fill: white; fill-opacity: 0; pointer-events: none;"/><title>Layer 1</title><g transform="matrix(-0.20876160264015198, -2.5565922845813374e-17, 2.5565922845813374e-17, -0.20876160264015198, 16.735915385376515, 22.910542655124345)" stroke="null" id="svg_1">
   <path stroke="null" id="svg_2" overflow="visible" display="inline" visibility="visible" marker="none" fill-rule="evenodd" fill="#000000" d="m2.44847,0.24716c-1.20715,0.13289 -2.21881,1.26869 -2.2116,2.48305l0,74.68565c0,0.9688 0.37807,1.46766 0.93119,2.13389l29.60362,29.13718c0.59584,0.58801 1.13616,0.81025 1.90123,0.81472l44.54134,0c1.30015,0 2.48298,-1.18297 2.48312,-2.48314l0,-104.28829c0,-1.3001 -1.18297,-2.48292 -2.48312,-2.48305l-74.49427,0c-0.09062,-0.00497 -0.18111,-0.00497 -0.27152,0zm2.75469,4.96611l69.52794,0l0,99.32222l-39.65266,0l0,-26.96443c0,-1.30005 -1.18296,-2.48289 -2.48312,-2.48302l-27.39216,0l0,-69.87477zm3.56953,74.84081l21.33947,0l0,21.02848l-21.33947,-21.02848z" style="fill: rgb(255, 255, 255);"/>
  </g><path stroke="null" id="svg_6" d="m15.5855,38.24484l17.97812,0c1.23826,0 2.24727,-1.00676 2.24727,-2.24727l0,-17.97812c0,-1.24048 -1.00902,-2.24727 -2.24727,-2.24727l-4.49451,0l0,6.74179l-8.98906,0l0,-6.74179l-4.49451,0c-1.23826,0 -2.24727,1.00676 -2.24727,2.24727l0,17.97812c0,1.24048 1.00902,2.24727 2.24727,2.24727l-0.00003,0z" transform="matrix(0.20876160264015198, 0, 0, 0.20876160264015198, 0.048724424093947505, 0)" style="fill: rgb(255, 255, 255);"/><path stroke="null" fill="#015401" id="svg_11" d="m24.66869,5.99191c-3.17227,0 -5.7538,2.58088 -5.7538,5.7538s2.58153,5.7538 5.7538,5.7538s5.7538,-2.5809 5.7538,-5.7538s-2.58155,-5.7538 -5.7538,-5.7538zm-1.91794,9.85433l-2.36992,-2.36992l0.90398,-0.90398l1.46594,1.46594l5.3018,-5.3018l0.90398,0.90398l-6.20578,6.20578z" transform="matrix(0.20876160264015198, 0, 0, 0.20876160264015198, 0.048724424093947505, 0)" style="fill: rgb(255, 255, 255);"/><path d="m47.97868,59.37424c-0.19181,0.02086 -0.36521,0.16215 -0.42438,0.34579l-1.93329,5.81559c-0.9525,0.33319 -1.84496,0.8829 -2.62488,1.3203l-5.2969,-2.89208c-0.18777,-0.10533 -0.44314,-0.07172 -0.59728,0.07859l-3.52079,3.52079c-0.15031,0.15414 -0.18392,0.4095 -0.07859,0.59728l2.89208,5.2969c-0.4374,0.77992 -0.9871,1.67238 -1.3203,2.62488l-5.81559,1.93329c-0.19758,0.06499 -0.34319,0.26356 -0.34579,0.47153l0,5.0297c0.00261,0.20798 0.14822,0.40654 0.34579,0.47153l5.81559,1.93329c0.33319,0.95252 0.8829,1.84497 1.3203,2.62488l-2.89208,5.2969c-0.10533,0.18777 -0.07172,0.44314 0.07859,0.59728l3.52079,3.52079c0.15414,0.15031 0.4095,0.18392 0.59728,0.07859l5.2969,-2.89208c0.77992,0.43738 1.67238,0.98708 2.62488,1.3203l1.93329,5.81559c0.06499,0.19758 0.26356,0.34319 0.47153,0.34579l5.0297,0c0.20798,-0.00262 0.40654,-0.14822 0.47153,-0.34579l1.93329,-5.81559c0.9525,-0.33322 1.84496,-0.88291 2.62488,-1.3203l5.2969,2.89208c0.18777,0.10533 0.44314,0.07172 0.59728,-0.07859l3.52079,-3.52079c0.15031,-0.15414 0.18392,-0.4095 0.07859,-0.59728l-2.89208,-5.2969c0.4374,-0.77991 0.9871,-1.67235 1.3203,-2.62488l5.81559,-1.93329c0.19758,-0.06499 0.34319,-0.26356 0.34579,-0.47153l0,-5.0297c-0.00262,-0.20798 -0.14822,-0.40654 -0.34579,-0.47153l-5.81559,-1.93329c-0.33319,-0.9525 -0.8829,-1.84496 -1.3203,-2.62488l2.89208,-5.2969c0.10533,-0.18777 0.07172,-0.44314 -0.07859,-0.59728l-3.52079,-3.52079c-0.15414,-0.15031 -0.4095,-0.18392 -0.59728,-0.07859l-5.32834,2.9078c-0.80625,-0.4263 -1.71842,-0.86211 -2.62488,-1.16312l-1.88614,-5.98849c-0.06662,-0.20257 -0.27404,-0.34978 -0.48725,-0.34579c-1.69089,0 -3.38945,0 -5.07685,0l0.00001,0zm0.40866,1.00594l4.29096,0l1.83898,5.84703c0.05121,0.15796 0.18563,0.28627 0.34579,0.33007c0.96702,0.28858 2.07619,0.81277 2.98639,1.30458c0.14451,0.07667 0.32703,0.07667 0.47153,0l5.2026,-2.82921l2.98639,2.98639l-2.82921,5.2026c-0.07667,0.14451 -0.07667,0.32703 0,0.47153c0.51727,0.95733 1.18826,2.00704 1.46176,2.92351c0.04827,0.15444 0.17564,0.28181 0.33007,0.33007l5.68985,1.90186l0,4.30668l-5.68985,1.90186c-0.15444,0.04827 -0.28181,0.17564 -0.33007,0.33007c-0.2735,0.91646 -0.94449,1.96621 -1.46176,2.92351c-0.07667,0.14451 -0.07667,0.32703 0,0.47153l2.82921,5.2026l-2.98639,2.98639l-5.2026,-2.82921c-0.14451,-0.07667 -0.32703,-0.07667 -0.47153,0c-0.95733,0.51725 -2.00705,1.18829 -2.92351,1.46176c-0.15444,0.04827 -0.28181,0.17564 -0.33007,0.33007l-1.90186,5.68985l-4.30668,0l-1.90186,-5.68985c-0.04827,-0.15444 -0.17564,-0.28181 -0.33007,-0.33007c-0.91647,-0.27346 -1.96619,-0.9445 -2.92351,-1.46176c-0.14451,-0.07667 -0.32703,-0.07667 -0.47153,0l-5.2026,2.82921l-2.98639,-2.98639l2.82921,-5.2026c0.07667,-0.14451 0.07667,-0.32703 0,-0.47153c-0.51727,-0.9573 -1.18826,-2.00705 -1.46176,-2.92351c-0.04827,-0.15444 -0.17564,-0.28181 -0.33007,-0.33007l-5.68985,-1.90186l0,-4.30668l5.68985,-1.90186c0.15444,-0.04827 0.28181,-0.17564 0.33007,-0.33007c0.2735,-0.91647 0.94448,-1.96618 1.46176,-2.92351c0.07667,-0.14451 0.07667,-0.32703 0,-0.47153l-2.82921,-5.2026l2.98639,-2.98639l5.2026,2.82921c0.14451,0.07667 0.32703,0.07667 0.47153,0c0.95733,-0.51727 2.00705,-1.18826 2.92351,-1.46176c0.15444,-0.04827 0.28181,-0.17564 0.33007,-0.33007l1.90186,-5.68985zm2.15334,9.55643c-6.10526,0 -11.06534,4.96008 -11.06534,11.06534c0,6.1052 4.96008,11.06534 11.06534,11.06534s11.06534,-4.96014 11.06534,-11.06534c0,-6.10527 -4.96008,-11.06534 -11.06534,-11.06534zm0,1.00594c5.56161,0 10.0594,4.49779 10.0594,10.0594c0,5.56159 -4.49779,10.0594 -10.0594,10.0594s-10.0594,-4.49781 -10.0594,-10.0594c0,-5.56162 4.49779,-10.0594 10.0594,-10.0594z" id="svg_16" stroke="null" transform="matrix(0.20876160264015198, 0, 0, 0.20876160264015198, 0.048724424093947505, 0)" style="fill: rgb(255, 255, 255);"/></g></svg>