<?xml version="1.0" encoding="utf-8"?>
<svg id="master-artboard" viewBox="0 0 273.6920471191406 260.3053894042969" version="1.1" xmlns="http://www.w3.org/2000/svg" x="0px" y="0px" style="enable-background:new 0 0 336 235.2;" width="273.6920471191406px" height="260.3053894042969px"><rect id="ee-background" x="0" y="0" width="273.6920471191406" height="260.3053894042969" style="fill: rgb(255, 255, 255); fill-opacity: 0; pointer-events: none;"/><title>Layer 1</title><path id="svg_3" d="m14.14136,54.875l17.416,0l0,-4.679l-17.416,0l0,4.679zm1.846,-2.833l13.723,0l0,0.986l-13.723,0l0,-0.986z" style="fill: rgb(255, 255, 255);" transform="matrix(4.527521133422852, 0, 0, 4.527521133422852, -8.03472900390625, -2)"/><path id="svg_4" d="m34.87136,54.875l17.417,0l0,-4.679l-17.417,0l0,4.679zm1.846,-2.833l13.724,0l0,0.986l-13.724,0l0,-0.986z" style="fill: rgb(255, 255, 255);" transform="matrix(4.527521133422852, 0, 0, 4.527521133422852, -8.03472900390625, -2)"/><path id="svg_5" d="m61.06236,52.038l0.923,0l0,-4.641l-3.662,0l0,-23.286l-13.821,0l0,-23.284l-24.88,0l0,23.285l-13.821,0l0,23.286l-3.662,0l0,4.641l0.923,0l5.917,0l0,0.994l-5.917,0l-0.923,0l0,4.641l59.846,0l0,-4.641l-0.923,0l-3.614,0l0,-0.994l3.614,0l0,-0.001zm-4.586,-4.641l-21.187,0l0,-21.439l7.804,0l0,6.056l5.579,0l0,-6.056l7.804,0l0,21.439zm-23.034,0l-2.76,0l0,-21.439l2.76,0l0,21.439zm11.497,-21.439l1.886,0l0,4.209l-1.886,0l0,-4.209zm-13.819,-23.285l1.885,0l0,4.976l-1.885,0l0,-4.976zm-9.651,0l7.804,0l0,6.823l5.578,0l0,-6.823l7.804,0l0,21.438l-9.213,0l-2.76,0l-9.213,0l0,-21.438zm-4.17,23.285l1.886,0l0,4.209l-1.886,0l0,-4.209zm-9.651,0l7.804,0l0,6.056l5.579,0l0,-6.056l7.804,0l0,21.439l-21.187,0l0,-21.439zm52.49,28.921l0,0.948l-56.153,0l0,-0.948l6.841,0l0,-4.688l-6.841,0l0,-0.947l1.816,0l24.881,0l2.76,0l24.881,0l1.815,0l0,0.947l-4.538,0l0,4.688l4.538,0z" style="fill: rgb(255, 255, 255); stroke: rgb(255, 255, 255);" transform="matrix(4.527521133422852, 0, 0, 4.527521133422852, -8.03472900390625, -2)"/><path d="M 11.17692 41.530102 L 11.17692 46.46756" id="svg_11" stroke="#000000" fill="none" style="fill: rgb(255, 255, 255); stroke: rgb(255, 255, 255);" transform="matrix(4.527521133422852, 0, 0, 4.527521133422852, -8.03472900390625, -2)"/><path d="M 9.98943 41.530102 L 9.98943 46.46756" id="svg_12" stroke="#000000" fill="none" style="fill: rgb(255, 255, 255); stroke: rgb(255, 255, 255);" transform="matrix(4.527521133422852, 0, 0, 4.527521133422852, -8.03472900390625, -2)"/><path d="M 12.30191 41.530102 L 12.30191 46.46756" id="svg_13" stroke="#000000" fill="none" style="fill: rgb(255, 255, 255); stroke: rgb(255, 255, 255);" transform="matrix(4.527521133422852, 0, 0, 4.527521133422852, -8.03472900390625, -2)"/><path d="M 13.6144 41.530102 L 13.6144 46.46756" id="svg_14" stroke="#000000" fill="none" style="fill: rgb(255, 255, 255); stroke: rgb(255, 255, 255);" transform="matrix(4.527521133422852, 0, 0, 4.527521133422852, -8.03472900390625, -2)"/><path d="M 14.73939 41.530102 L 14.73939 46.46756" id="svg_15" stroke="#000000" fill="none" style="fill: rgb(255, 255, 255); stroke: rgb(255, 255, 255);" transform="matrix(4.527521133422852, 0, 0, 4.527521133422852, -8.03472900390625, -2)"/><path d="M 16.23938 41.530102 L 16.23938 46.46756" id="svg_16" stroke="#000000" fill="none" style="fill: rgb(255, 255, 255); stroke: rgb(255, 255, 255);" transform="matrix(4.527521133422852, 0, 0, 4.527521133422852, -8.03472900390625, -2)"/><path d="M 17.42687 41.530102 L 17.42687 46.46756" stroke="#000000" id="svg_17" fill="none" style="fill: rgb(255, 255, 255); stroke: rgb(255, 255, 255);" transform="matrix(4.527521133422852, 0, 0, 4.527521133422852, -8.03472900390625, -2)"/></svg>