<?xml version="1.0" encoding="utf-8"?>
<svg id="master-artboard" viewBox="0 0 100 100" version="1.1" xmlns="http://www.w3.org/2000/svg" x="0px" y="0px" style="enable-background:new 0 0 1400 980;" width="100px" height="100px"><g transform="matrix(1.1481652979030688, 0, 0, 1.1481652979030688, 0.0000022825729502073955, 0.7303433602651026)"><rect id="ee-background" x="0" y="0" width="87.09546661376953" height="85.82328033447266" style="fill: white; fill-opacity: 0; pointer-events: none;"/><title>6.10</title><g transform="matrix(1, 0, 0, 1, -46.85947036743164, -13.403977394104004)"><path d="M43.5,44 L35,44 L35,44 C34.4477153,44 34,44.4477153 34,45 L34,55 L34,55 C34,55.5522847 34.4477153,56 35,56 L43.5,56 L43.5,56 C43.7761424,56 44,56.2238576 44,56.5 L44,65 L44,65 C44,65.5522847 44.4477153,66 45,66 L55,66 L55,66 C55.5522847,66 56,65.5522847 56,65 L56,56.5 L56,56.5 C56,56.2238576 56.2238576,56 56.5,56 L65,56 L65,56 C65.5522847,56 66,55.5522847 66,55 L66,45 L66,45 C66,44.4477153 65.5522847,44 65,44 L56.5,44 L56.5,44 C56.2238576,44 56,43.7761424 56,43.5 L56,35 L56,35 C56,34.4477153 55.5522847,34 55,34 L45,34 L45,34 C44.4477153,34 44,34.4477153 44,35 L44,43.5 L44,43.5 C44,43.7761424 43.7761424,44 43.5,44 Z" transform="matrix(1.1165907382965088, 0, 0, 1.1165907382965088, 34.577659606933594, 0.000008171978151949588)" style="fill: rgb(255, 255, 255);"/><path d="M50,78 C65.463973,78 78,65.463973 78,50 C78,34.536027 65.463973,22 50,22 C34.536027,22 22,34.536027 22,50 C22,65.463973 34.536027,78 50,78 Z M50,88 C29.0131795,88 12,70.9868205 12,50 C12,29.0131795 29.0131795,12 50,12 C70.9868205,12 88,29.0131795 88,50 C88,70.9868205 70.9868205,88 50,88 Z" fill-rule="nonzero" transform="matrix(1.1165907382965088, 0, 0, 1.1165907382965088, 34.577659606933594, 0.000008171978151949588)" style="fill: rgb(255, 255, 255);"/></g></g></svg>