<?xml version="1.0" encoding="utf-8"?>
<svg id="master-artboard" viewBox="0 0 100 100" version="1.1" xmlns="http://www.w3.org/2000/svg" x="0px" y="0px" style="enable-background:new 0 0 1400 980;" width="100px" height="100px"><g transform="matrix(1.1067142770897918, 0, 0, 1.1067142770897918, 0.0000022825729502073955, 0.11951765902988143)"><rect id="ee-background" x="0" y="0" width="90.35755157470703" height="90.14157104492188" style="fill: white; fill-opacity: 0; pointer-events: none;"/><title>Layer 1</title><path d="m61.932,11.66401c-0.008,-0.023 -0.011,-0.047 -0.021,-0.069a1,1 0 0 0 -0.168,-0.264l-9,-10a1,1 0 0 0 -0.743,-0.331l-40,0a1,1 0 0 0 -0.743,0.331l-9,10a1,1 0 0 0 -0.168,0.264c-0.01,0.022 -0.013,0.046 -0.021,0.069a0.969,0.969 0 0 0 -0.057,0.283c0,0.018 -0.011,0.034 -0.011,0.053l0,48a1,1 0 0 0 1,1l58,0a1,1 0 0 0 1,-1l0,-48c0,-0.019 -0.01,-0.035 -0.011,-0.053a0.969,0.969 0 0 0 -0.057,-0.283zm-3.177,-0.664l-19.935,0l-1.6,-8l14.335,0l7.2,8zm-31.755,2l10,0l0,2.586l-0.293,-0.293a1,1 0 0 0 -1.358,-0.052l-1.337,1.147l-1.347,-1.2a1,1 0 0 0 -1.383,0.051l-1.293,1.334l-1.282,-1.282a1,1 0 0 0 -1.414,0l-0.293,0.295l0,-2.586zm8.18,-10l1.6,8l-9.56,0l1.6,-8l6.36,0zm-22.735,0l14.335,0l-1.6,8l-19.935,0l7.2,-8zm14.555,56l0,-2.586l0.293,0.293a1,1 0 0 0 1.414,0l1.282,-1.282l1.293,1.334a1,1 0 0 0 1.383,0.051l1.347,-1.2l1.337,1.147a1,1 0 0 0 1.358,-0.052l0.293,-0.291l0,2.586l-10,0zm33,0l-21,0l0,-5a1,1 0 0 0 -1.707,-0.707l-1.345,1.345l-1.3,-1.113a1,1 0 0 0 -1.316,0.012l-1.284,1.142l-1.33,-1.379a1,1 0 0 0 -0.71,-0.3l-0.008,0a1,1 0 0 0 -0.707,0.293l-1.293,1.293l-1.293,-1.293a1,1 0 0 0 -1.707,0.707l0,5l-21,0l0,-46l21,0l0,5a1,1 0 0 0 1.707,0.707l1.293,-1.293l1.293,1.293a1,1 0 0 0 0.707,0.293l0.008,0a1,1 0 0 0 0.71,-0.3l1.333,-1.375l1.284,1.142a1,1 0 0 0 1.316,0.012l1.3,-1.113l1.345,1.345a1,1 0 0 0 1.704,-0.711l0,-5l21,0l0,46z" id="svg_2" transform="matrix(1.50172758102417, 0, 0, 1.50172758102417, -3.068270206451416, -1.7156956195831299)" style="fill: rgb(255, 255, 255);"/><path stroke="null" id="svg_1" overflow="visible" display="inline" visibility="visible" marker="none" fill="#000000" d="m54.72756,20.04982l0,0.99638l0,7.97106l-1.99277,0l0,-6.97468l-6.97468,0l0,-1.99277l7.97106,0l0.99638,0zm-36.86616,0l0,1.99277l-6.97468,0l0,6.97468l-1.99277,0l0,-7.97106l0,-0.99638l0.99638,0l7.97106,0zm32.88063,3.98553l0,23.91321l-2.98915,0l0,-23.91321l2.98915,0zm-3.98553,0l0,23.91321l-0.99638,0l0,-23.91321l0.99638,0zm-1.99277,0l0,23.91321l-4.98191,0l0,-23.91321l4.98191,0zm-5.9783,0l0,23.91321l-0.99638,0l0,-23.91321l0.99638,0zm-1.99277,0l0,23.91321l-0.99638,0l0,-23.91321l0.99638,0zm-1.99277,0l0,23.91321l-0.99638,0l0,-23.91321l0.99638,0zm-1.99277,0l0,23.91321l-3.98553,0l0,-23.91321l3.98553,0zm-4.98191,0l0,23.91321l-0.99638,0l0,-23.91321l0.99638,0zm-1.99277,0l0,23.91321l-2.98915,0l0,-23.91321l2.98915,0zm-3.98553,0l0,23.91321l-0.99638,0l0,-23.91321l0.99638,0zm-1.99277,0l0,23.91321l-1.99277,0l0,-23.91321l1.99277,0zm-2.98915,0l0,23.91321l-0.99638,0l0,-23.91321l0.99638,0zm-1.99277,0l0,23.91321l-1.99277,0l0,-23.91321l1.99277,0zm39.85531,18.93125l0,7.97111l0,0.99638l-0.99638,0l-7.97106,0l0,-1.99277l6.97468,0l0,-6.97473l1.99277,0zm-43.84084,0l0,6.97473l6.97468,0l0,1.99277l-7.97106,0l-0.99638,0l0,-0.99638l0,-7.97111l1.99277,0z" transform="matrix(1.50172758102417, 0, 0, 1.50172758102417, -3.068270206451416, -1.7156956195831299)" style="fill: rgb(255, 255, 255);"/></g></svg>