<?xml version="1.0" encoding="utf-8"?>
<svg id="master-artboard" viewBox="0 0 100 100" version="1.1" xmlns="http://www.w3.org/2000/svg" x="0px" y="0px" style="enable-background:new 0 0 1400 980;" width="100px" height="100px"><g transform="matrix(7.814266303264413, 0, 0, 7.814266303264413, 0.15951792793821085, -5.23610708569322e-7)"><rect id="ee-background" x="0" y="0" width="12.756278991699219" height="12.797106742858887" style="fill: white; fill-opacity: 0; pointer-events: none;"/><path d="M23,1A22,22,0,1,0,45,23,22.025,22.025,0,0,0,23,1ZM16,18.586l6,6V10h2V24.586l6-6L31.414,20l-7.707,7.707a1,1,0,0,1-1.414,0L14.586,20ZM36,23a13,13,0,0,1-26,0V22h2v1a11,11,0,0,0,22,0V22h2Z" transform="matrix(0.28342798352241516, 0, 0, 0.28342798352241516, -0.14070546627044678, 0)" style="fill: rgb(255, 255, 255);"/></g></svg>