<svg width="100" height="92" xmlns="http://www.w3.org/2000/svg" version="1.1" xml:space="preserve">
 <g>
  <title>Layer 1</title>
  <path d="m67.38587,1.28253l-50.2,0l0,90l66,0l0,-74.2l-15.8,-15.8zm10.8,85l-56,0l0,-80l42.2,0l0,14.8l13.8,0l0,65.2zm-3.3,-70.2l-5.5,0l0,-5.9l5.5,5.9z" id="svg_1"/>
  <g id="svg_4" stroke="null">
   <path d="m49.45248,51.86303c-2.54131,0 -5.08648,0.96559 -7.02545,2.90451c-1.64559,1.64559 -2.59343,3.72598 -2.84247,5.87109c-4.04638,0.36737 -7.21161,3.76468 -7.21161,7.90674c0,4.38729 3.55667,7.94397 7.94397,7.94397l19.46272,0c3.74081,0 6.75237,-3.01156 6.75237,-6.75237c0,-3.74081 -3.01156,-6.75238 -6.75237,-6.75238l-0.47167,0c0.35001,-2.92116 -0.60072,-5.97533 -2.84247,-8.21704c-1.93884,-1.93892 -4.4717,-2.90451 -7.01301,-2.90451l-0.00001,-0.00001zm0,8.34117c0.43882,0 0.7944,0.35566 0.7944,0.7944l0,8.53978l3.04103,-2.768c0.30838,-0.28153 0.83451,-0.24591 1.12955,0.04965c0.30588,0.30636 0.24877,0.85064 -0.06204,1.12955l-4.36918,3.97198c-0.17489,0.15979 -0.32292,0.19927 -0.53376,0.1986c-0.21246,-0.00397 -0.42024,-0.09461 -0.53376,-0.1986l-4.36918,-3.97198c-0.32646,-0.28416 -0.34231,-0.81998 -0.06204,-1.12955c0.2803,-0.30954 0.82117,-0.33118 1.12955,-0.04965l3.04103,2.768l0,-8.53978c0,-0.43873 0.35557,-0.7944 0.7944,-0.7944z" fill="#000000" marker="none" visibility="visible" display="inline" overflow="visible" id="svg_2" stroke="null"/>
  </g>
 </g>

</svg>