<?xml version="1.0" encoding="utf-8"?>
<svg id="master-artboard" viewBox="0 0 500 500" xmlns="http://www.w3.org/2000/svg" width="500px" height="500px" version="1.1" style="shape-rendering:geometricPrecision; text-rendering:geometricPrecision; image-rendering:optimizeQuality; fill-rule:evenodd; clip-rule:evenodd"><g transform="matrix(1.3383312225341797, 0, 0, 1.3383312225341797, -88.32170104980469, 26.20306396484375)"><path d="M86.797,59.926l-16.442-6.064L54.14,16.344l-11.182-5.218l5.835,32.673l-16.078-7.503L29.832,16.75l-5.833-2.723  L19.692,31.06c-2.179,0.023-4.119,1.024-4.965,2.836c-1.268,2.716,1.232,4.388,4.554,5.938l62.923,29.933  c3.321,1.551,7.043,0.604,8.312-2.113C91.783,64.936,90.118,61.476,86.797,59.926z" transform="matrix(4, 0, 0, 4, 50.00000000000006, 0.000003943609499401646)"/><path d="M 4.333 83.335999 H 96 V 88.668999 H 4.333 V 83.335999 Z" transform="matrix(4, 0, 0, 4, 50.00000000000006, 0.000003943609499401646)"/></g></svg>