<svg width="95.99999999999999" height="88" xmlns="http://www.w3.org/2000/svg">
 <title>40 Newsletter, Journal, Manifest, Newspaper, Paper, Print</title>

 <g>
  <title>Layer 1</title>
  <path id="svg_3" d="m86.03892,34.62993l-17,0l0,-32a1,1 0 0 0 -1,-1l-51,0a1,1 0 0 0 -1,1l0,69a13,13 0 0 0 13,13l49.5,0l0,-0.13a10,10 0 0 0 8.5,-9.87l0,-39a1,1 0 0 0 -1,-1zm-57,48a11,11 0 0 1 -11,-11l0,-68l49,0l0,71a10,10 0 0 0 4,8l-42,0zm56,-8a8,8 0 0 1 -16,0l0,-38l16,0l0,38zm-62,-53l21,0a1,1 0 0 0 1,-1l0,-12a1,1 0 0 0 -1,-1l-21,0a1,1 0 0 0 -1,1l0,12a1,1 0 0 0 1,1zm1,-12l19,0l0,10l-19,0l0,-10zm24.5,-2l15,0l0,2l-15,0l0,-2zm0,6l15,0l0,2l-15,0l0,-2zm0,6l15,0l0,2l-15,0l0,-2zm-13.5,6l28.5,0l0,2l-28.5,0l0,-2zm0,6l28.5,0l0,2l-28.5,0l0,-2zm0,6l28.5,0l0,2l-28.5,0l0,-2zm-13,7l0,9a1,1 0 0 0 1,1l39,0a1,1 0 0 0 1,-1l0,-9a1,1 0 0 0 -1,-1l-39,0a1,1 0 0 0 -1,1zm2,1l37,0l0,7l-37,0l0,-7zm29,13l10.5,0l0,2l-10.5,0l0,-2zm-3,2l-28.5,0l0,-2l28.5,0l0,2zm3,4l10.5,0l0,2l-10.5,0l0,-2zm-3,2l-28.5,0l0,-2l28.5,0l0,2zm3,4l10.5,0l0,2l-10.5,0l0,-2zm-21,-43l-10.5,0l0,-2l10.5,0l0,2zm0,6l-10.5,0l0,-2l10.5,0l0,2zm0,6l-10.5,0l0,-2l10.5,0l0,2zm18,33l-28.5,0l0,-2l28.5,0l0,2zm-19.5,4l3,0l0,2l-3,0l0,-2zm6,0l3,0l0,2l-3,0l0,-2zm6,0l3,0l0,2l-3,0l0,-2zm6,0l3,0l0,2l-3,0l0,-2zm6,0l3,0l0,2l-3,0l0,-2zm6,0l3,0l0,2l-3,0l0,-2z"/>
  <rect fill="#ffffff" id="svg_6" height="74.3211" width="43.25842" y="4.36768" x="20.58075"/>
  <g id="svg_20">
   <path id="svg_2" d="m50.70769,44.12899l0,-8c0,-0.552 -0.449,-1 -1,-1l-2,0l0,3l-4,0l0,-3l-2,0c-0.551,0 -1,0.448 -1,1l0,8c0,0.552 0.449,1 1,1l8,0c0.551,0 1,-0.448 1,-1z"/>
   <path id="svg_4" d="m41.70769,31.23325l8,0c0.551,0 1,-0.448 1,-1l0,-8c0,-0.552 -0.449,-1 -1,-1l-2,0l0,3l-4,0l0,-3l-2,0c-0.551,0 -1,0.448 -1,1l0,8c0,0.552 0.449,1 1,1z"/>
   <path id="svg_5" d="m41.95583,17.08936l8,0c0.551,0 1,-0.448 1,-1l0,-8c0,-0.552 -0.449,-1 -1,-1l-2,0l0,3l-4,0l0,-3l-2,0c-0.551,0 -1,0.448 -1,1l0,8c0,0.552 0.449,1 1,1z"/>
   <path stroke="null" fill="#015401" id="svg_8" d="m32.85421,8.01249c-2.36267,0 -4.28537,1.92223 -4.28537,4.28537s1.9227,4.28537 4.28537,4.28537s4.28537,-1.92223 4.28537,-4.28537s-1.9227,-4.28537 -4.28537,-4.28537zm-1.42846,7.33941l-1.7651,-1.7651l0.67328,-0.67328l1.09182,1.09182l3.94873,-3.94873l0.67328,0.67328l-4.62201,4.62201z"/>
   <path id="svg_14" d="m50.70769,58.02475l0,-8c0,-0.552 -0.449,-1 -1,-1l-2,0l0,3l-4,0l0,-3l-2,0c-0.551,0 -1,0.448 -1,1l0,8c0,0.552 0.449,1 1,1l8,0c0.551,0 1,-0.448 1,-1z"/>
   <path id="svg_15" d="m50.45955,71.9205l0,-8c0,-0.552 -0.449,-1 -1,-1l-2,0l0,3l-4,0l0,-3l-2,0c-0.551,0 -1,0.448 -1,1l0,8c0,0.552 0.449,1 1,1l8,0c0.551,0 1,-0.448 1,-1z"/>
   <path stroke="null" fill="#015401" id="svg_16" d="m32.85421,22.15638c-2.36267,0 -4.28537,1.92222 -4.28537,4.28537s1.9227,4.28537 4.28537,4.28537s4.28537,-1.92223 4.28537,-4.28537s-1.92271,-4.28537 -4.28537,-4.28537zm-1.42846,7.33941l-1.7651,-1.7651l0.67328,-0.67328l1.09182,1.09182l3.94873,-3.94873l0.67328,0.67328l-4.62201,4.62201z"/>
   <path stroke="null" fill="#015401" id="svg_17" d="m32.85421,35.55585c-2.36267,0 -4.28537,1.92222 -4.28537,4.28537s1.9227,4.28537 4.28537,4.28537s4.28537,-1.92223 4.28537,-4.28537s-1.92271,-4.28537 -4.28537,-4.28537zm-1.42846,7.33941l-1.7651,-1.7651l0.67328,-0.67328l1.09182,1.09182l3.94873,-3.94873l0.67328,0.67328l-4.62201,4.62201z"/>
   <path stroke="null" fill="#015401" id="svg_18" d="m32.85421,49.4516c-2.36267,0 -4.28537,1.92222 -4.28537,4.28537s1.9227,4.28537 4.28537,4.28537s4.28537,-1.92223 4.28537,-4.28537s-1.92271,-4.28537 -4.28537,-4.28537zm-1.42846,7.33941l-1.7651,-1.7651l0.67328,-0.67328l1.09182,1.09182l3.94873,-3.94873l0.67328,0.67328l-4.62201,4.62201z"/>
   <path stroke="null" fill="#015401" id="svg_19" d="m32.85421,63.34735c-2.36267,0 -4.28537,1.92222 -4.28537,4.28537s1.9227,4.28537 4.28537,4.28537s4.28537,-1.92223 4.28537,-4.28537s-1.92271,-4.28537 -4.28537,-4.28537zm-1.42846,7.33941l-1.7651,-1.7651l0.67328,-0.67328l1.09182,1.09182l3.94873,-3.94873l0.67328,0.67328l-4.62201,4.62201z"/>
  </g>
 </g>
</svg>