<?xml version="1.0" encoding="utf-8"?>
<svg id="master-artboard" viewBox="0 0 100 100" version="1.1"
  xmlns="http://www.w3.org/2000/svg" x="0px" y="0px" style="enable-background:new 0 0 1400 980;" width="100px" height="100px">
  <g transform="matrix(0.5844441929593447, 0, 0, 0.5844441929593447, 0.0000022825729502073955, 0.054942079702371416)">
    <rect id="ee-background" x="0" y="0" width="171.10272216796875" height="170.9147186279297" style="fill: white; fill-opacity: 0; pointer-events: none;"/>
    <g transform="matrix(2.832838773727417, 0, 0, 2.832838773727417, -5.3994364738464355, -3.060667037963867)">
      <g>
        <title>Layer 1</title>
        <g id="svg_1">
          <path id="svg_2" d="m61.932,11.66401c-0.008,-0.023 -0.011,-0.047 -0.021,-0.069a1,1 0 0 0 -0.168,-0.264l-9,-10a1,1 0 0 0 -0.743,-0.331l-40,0a1,1 0 0 0 -0.743,0.331l-9,10a1,1 0 0 0 -0.168,0.264c-0.01,0.022 -0.013,0.046 -0.021,0.069a0.969,0.969 0 0 0 -0.057,0.283c0,0.018 -0.011,0.034 -0.011,0.053l0,48a1,1 0 0 0 1,1l58,0a1,1 0 0 0 1,-1l0,-48c0,-0.019 -0.01,-0.035 -0.011,-0.053a0.969,0.969 0 0 0 -0.057,-0.283zm-3.177,-0.664l-19.935,0l-1.6,-8l14.335,0l7.2,8zm-31.755,2l10,0l0,2.586l-0.293,-0.293a1,1 0 0 0 -1.358,-0.052l-1.337,1.147l-1.347,-1.2a1,1 0 0 0 -1.383,0.051l-1.293,1.334l-1.282,-1.282a1,1 0 0 0 -1.414,0l-0.293,0.295l0,-2.586zm8.18,-10l1.6,8l-9.56,0l1.6,-8l6.36,0zm-22.735,0l14.335,0l-1.6,8l-19.935,0l7.2,-8zm14.555,56l0,-2.586l0.293,0.293a1,1 0 0 0 1.414,0l1.282,-1.282l1.293,1.334a1,1 0 0 0 1.383,0.051l1.347,-1.2l1.337,1.147a1,1 0 0 0 1.358,-0.052l0.293,-0.291l0,2.586l-10,0zm33,0l-21,0l0,-5a1,1 0 0 0 -1.707,-0.707l-1.345,1.345l-1.3,-1.113a1,1 0 0 0 -1.316,0.012l-1.284,1.142l-1.33,-1.379a1,1 0 0 0 -0.71,-0.3l-0.008,0a1,1 0 0 0 -0.707,0.293l-1.293,1.293l-1.293,-1.293a1,1 0 0 0 -1.707,0.707l0,5l-21,0l0,-46l21,0l0,5a1,1 0 0 0 1.707,0.707l1.293,-1.293l1.293,1.293a1,1 0 0 0 0.707,0.293l0.008,0a1,1 0 0 0 0.71,-0.3l1.333,-1.375l1.284,1.142a1,1 0 0 0 1.316,0.012l1.3,-1.113l1.345,1.345a1,1 0 0 0 1.704,-0.711l0,-5l21,0l0,46z" style="fill: rgb(0,0,0);"/>
          <path id="svg_3" d="m33,23.00001a1,1 0 0 0 -1,1l0,25a1,1 0 0 0 1,1l24,0a1,1 0 0 0 1,-1l0,-25a1,1 0 0 0 -1,-1l-24,0zm23,25l-22,0l0,-23l22,0l0,23z" style="fill: rgb(0,0,0);"/>
          <path d="M 44 39.000011 H 46 V 46.000011 H 44 V 39.000011 Z" id="svg_4" style="fill: rgb(0,0,0);"/>
          <path d="M 48 39.000011 H 50 V 46.000011 H 48 V 39.000011 Z" id="svg_5" style="fill: rgb(0,0,0);"/>
          <path d="M 52 39.000011 H 54 V 46.000011 H 52 V 39.000011 Z" id="svg_6" style="fill: rgb(0,0,0);"/>
          <path id="svg_7" d="m9,44.41401l0,5.586l2,0l0,-5.586l1.293,1.293l1.414,-1.414l-3,-3a1,1 0 0 0 -1.414,0l-3,3l1.414,1.414l1.293,-1.293z" style="fill: rgb(0,0,0);"/>
          <path id="svg_8" d="m19.293,41.29301l-3,3l1.414,1.414l1.293,-1.293l0,5.586l2,0l0,-5.586l1.293,1.293l1.414,-1.414l-3,-3a1,1 0 0 0 -1.414,0z" style="fill: rgb(0,0,0);"/>
          <path d="M 36 27.00001 H 54 V 29.00001 H 36 V 27.00001 Z" id="svg_9" style="fill: rgb(0,0,0);"/>
          <path d="M 36 31.00001 H 47 V 33.00001 H 36 V 31.00001 Z" id="svg_10" style="fill: rgb(0,0,0);"/>
          <path d="M 49 31.00001 H 54 V 33.00001 H 49 V 31.00001 Z" id="svg_11" style="fill: rgb(0,0,0);"/>
          <path d="M 36 39.000011 H 38 V 46.000011 H 36 V 39.000011 Z" id="svg_12" style="fill: rgb(0,0,0);"/>
          <path d="M 40 39.000011 H 42 V 46.000011 H 40 V 39.000011 Z" id="svg_13" style="fill: rgb(0,0,0);"/>
          <path d="M 7 52.000011 H 23 V 54.000011 H 7 V 52.000011 Z" id="svg_14" style="fill: rgb(0,0,0);"/>
        </g>
      </g>
    </g>
  </g>
</svg>