<svg xmlns="http://www.w3.org/2000/svg"
    xmlns:xlink="http://www.w3.org/1999/xlink" version="1.1" x="0px" y="0px" viewBox="0 0 64 80" style="enable-background:new 0 0 64 64;" xml:space="preserve">
    <g>
        <path d="M1,8v48h62V8H1z M31,14v4h-2v-8h6v8h-2v-4H31z M33,50v-4h2v8h-6v-8h2v4H33z M61,54H37V44H27v10H3V10h24v10h10V10h24V54z"/>
        <path d="M5,52h20V32H5V52z M7,48h2v2H7V48z M19,50v-2h2v-2h-2v-4h-6v2h4v6h-6v-4H7v-8h4v-4h3v2h2v-2h3v4h4v12H19z M23,36h-2v-2h2   V36z M9,34v2H7v-2H9z"/>
        <rect x="13" y="46" width="2" height="2"/>
        <rect x="13" y="38" width="4" height="2"/>
        <rect x="9" y="40" width="2" height="4"/>
        <rect x="19" y="40" width="2" height="2"/>
    </g>
</svg>