<svg xmlns="http://www.w3.org/2000/svg" width="30" height="30" stroke="none" stroke-linecap="round" stroke-linejoin="round" fill="#fff" fill-rule="nonzero"><path d="M20.1084 14.3721c-.1897-.1942-.4109-.2589-.6322-.2589s-.4425.0971-.6321.2589c-.3477.356-.3477.9385 0 1.2945l1.2011 1.2298H8.9824l1.2011-1.2298c.3477-.356.3477-.9385 0-1.2945a.882.882 0 0 0-1.2643 0l-2.7183 2.7832c-.3477.356-.3477.9385 0 1.2945l2.7183 2.7832c.1896.1941.4109.2589.6321.2589s.4425-.0971.6322-.2589c.3477-.356.3477-.9385 0-1.2945l-1.2011-1.2298h11.0628l-1.2011 1.2298c-.3477.356-.3477.9385 0 1.2945a.882.882 0 0 0 1.2643 0l2.7183-2.7832c.3477-.356.3477-.9385 0-1.2945l-2.7183-2.7832zm-16.0253-.1618H3.0717c-.2213 0-.3793.1618-.3793.3884v6.4078c0 .2265.158.3883.3793.3883h1.0114c.2213 0 .3793-.1618.3793-.3883v-6.4078c0-.2266-.1896-.3884-.3793-.3884zm21.9044 0h-1.0431c-.2213 0-.3793.1618-.3793.3884v6.4078c0 .2265.158.3883.3793.3883h1.0114c.2213 0 .3793-.1618.3793-.3883v-6.4078c.0317-.2266-.158-.3884-.3476-.3884zm3.1608-6.5696H-.1207c-.2213 0-.3793.1618-.3793.3884v1.0356c0 .2265.158.3883.3793.3883h2.7815v2.2007c0 .2265.158.3883.3793.3883h1.0431c.2212 0 .3793-.1618.3793-.3883V9.453h2.5918v2.2007c0 .2265.158.3883.3793.3883h1.0115c.2212 0 .3793-.1618.3793-.3883V9.453h2.5918v2.2007c0 .2265.158.3883.3793.3883h1.0115c.2212 0 .3793-.1618.3793-.3883V9.453h2.5918v2.2007c0 .2265.1581.3883.3793.3883h1.0115c.2212 0 .3793-.1618.3793-.3883V9.453h2.655v2.2007c0 .2265.1581.3883.3793.3883h1.0115c.2212 0 .3793-.1618.3793-.3883V9.453h2.5918v2.2007c0 .2265.1581.3883.3793.3883h1.0115c.2212 0 .3793-.1618.3793-.3883V9.453h2.7815c.2212 0 .3793-.1618.3793-.3883V8.0291c.0316-.1942-.1265-.3884-.3477-.3884z"/></svg>