<svg xmlns="http://www.w3.org/2000/svg"
    xmlns:xlink="http://www.w3.org/1999/xlink" version="1.1" x="0px" y="0px" viewBox="0 0 64 80" enable-background="new 0 0 64 64" xml:space="preserve">
    <g>
        <path d="M16.268,7.784c-0.206,0.321-0.365,0.662-0.488,1.068c0.173-0.294,0.322-0.55,0.471-0.804   c0.013,0.006,0.025,0.013,0.037,0.019c-0.015,0.069-0.03,0.139-0.046,0.208c-0.003,0.013-0.006,0.026-0.009,0.04   c-0.424,1.864-0.531,3.787-0.346,5.69l0.39,4.014c0.038,0.394,0.063,0.79,0.089,1.185c0.13,1.953,0.958,3.798,2.506,5.605   c0.044,0.051,0.085,0.124,0.104,0.186c0.544,1.714,1.343,3.097,2.444,4.228c1.655,1.701,3.62,2.6,5.686,2.601h0.004   c2.056,0,4.013-0.892,5.66-2.581c1.055-1.081,1.837-2.403,2.391-4.041c0.061-0.182,0.177-0.383,0.317-0.553   c1.604-1.946,2.389-3.929,2.386-6.035c0-0.146,0-0.292,0.002-0.438l0.031-7.288c-0.036-0.242-0.072-0.487-0.107-0.736   c0.039,0.099,0.076,0.194,0.112,0.287c0.067,0.168,0.13,0.329,0.187,0.491c0.089,0.248,0.166,0.5,0.247,0.751   c0.006-0.048-0.001-0.091-0.01-0.133c-0.164-0.789-0.357-1.568-0.704-2.3c-0.027-0.058-0.054-0.115-0.078-0.173   c-0.001-0.001-0.001-0.002-0.001-0.002c-0.048-0.107-0.092-0.215-0.131-0.324c-0.115-0.312-0.229-0.625-0.344-0.938   c-0.086-0.237-0.173-0.476-0.259-0.713c-0.016-0.043-0.032-0.085-0.048-0.129c0.017-0.01,0.035-0.019,0.052-0.029   c0.293,0.463,0.587,0.926,0.881,1.39c-0.045-0.156-0.101-0.31-0.163-0.461c-0.266-0.646-0.61-1.24-1.127-1.722   c-0.109-0.101-0.207-0.212-0.289-0.335c-0.523-0.778-1.15-1.438-2.009-1.839c-0.025-0.013-0.05-0.024-0.076-0.035   c-0.395-0.175-0.793-0.341-1.19-0.511c-0.1-0.042-0.199-0.085-0.298-0.129c0.201,0.016,0.4,0.039,0.597,0.068   c1.123,0.167,2.184,0.544,3.213,1.031c-0.04-0.041-0.085-0.072-0.13-0.103c-1.236-0.835-2.617-1.253-4.083-1.426   c-0.057-0.006-0.113-0.013-0.17-0.018c-0.492-0.048-0.989-0.064-1.459-0.253c-0.183-0.074-0.381-0.113-0.575-0.164   c-0.223-0.058-0.446-0.112-0.669-0.167c-0.054-0.013-0.107-0.026-0.161-0.04c0.003-0.028,0.002-0.019,0.005-0.047h2.537   c-0.019-0.049-0.042-0.065-0.067-0.068c-1.104-0.159-2.21-0.278-3.326-0.177c-0.382,0.034-0.76,0.051-1.141-0.001   c-0.167-0.023-0.338-0.03-0.508-0.044c-0.001-0.028-0.001-0.02-0.002-0.049c0.828-0.155,1.656-0.309,2.532-0.472   c-0.879,0.022-1.707,0.079-2.526,0.225c-0.457,0.081-0.904,0.228-1.364,0.287c-0.656,0.085-1.32,0.12-1.984,0.175   C24.577,1.43,25.981,1.159,27.412,1c-0.269,0.007-0.538-0.004-0.806,0.01c-0.991,0.051-1.974,0.168-2.935,0.431   c-0.796,0.218-1.552,0.522-2.202,1.05c-0.123,0.1-0.273,0.169-0.409,0.252c-0.013-0.021-0.028-0.041-0.041-0.063   c0.299-0.216,0.586-0.45,0.899-0.645c0.318-0.199,0.654-0.373,0.993-0.533c0.328-0.155,0.671-0.278,1.007-0.415   c-0.667,0.169-1.309,0.404-1.927,0.707c-1.226,0.602-2.148,1.606-3.208,2.427c-0.002,0.002-0.004,0.005-0.006,0.007   c-0.069,0.111-0.143,0.219-0.204,0.335c-0.089,0.171-0.157,0.354-0.259,0.516c-0.046,0.074-0.146,0.125-0.231,0.161   c-0.174,0.071-0.36,0.112-0.531,0.189c-0.913,0.409-1.451,1.124-1.679,2.087c0.219-0.437,0.496-0.829,0.9-1.185   c-0.11,0.377-0.201,0.711-0.307,1.041C16.42,7.518,16.351,7.655,16.268,7.784z M18.482,18.095l0.01-0.12   c0.008-0.103,0.019-0.245,0.035-0.336c0.511-0.17,0.812-0.659,0.829-1.349c0.012-0.491,0.015-0.988,0.02-1.467   c0.004-0.535,0.01-1.081,0.025-1.625c0-0.912,0.74-1.646,1.646-1.646c0.016,0,0.032,0,0.049,0.001l0.827,0.024   c0.681-0.056,1.368-0.049,2.053-0.058c0.613-0.008,1.226-0.002,1.839-0.002h1.806c0.658,0,1.315,0.002,1.973-0.001   c0.486-0.002,0.971-0.01,1.457-0.012c0.42-0.003,0.84-0.001,1.26-0.002c0.408-0.001,0.812-0.008,1.213,0.114   c0.464,0.141,0.81,0.415,1.01,0.843c0.129,0.274,0.188,0.582,0.276,0.865c0.004-0.005,0.01-0.012,0.014-0.017   c0.013,0.467,0.013,0.943,0.012,1.433c-0.001,0.426-0.002,0.867,0.007,1.306c0.003,0.117,0.002,0.235,0.001,0.362v0.246   c0,0.491,0.352,0.913,0.835,1c0.019,0.091,0.032,0.218,0.038,0.269c0.2,1.881-0.394,3.591-1.868,5.381   c-0.304,0.37-0.541,0.791-0.686,1.218c-0.451,1.332-1.073,2.394-1.902,3.244c-1.24,1.272-2.675,1.945-4.149,1.945h-0.003   c-1.482-0.001-2.925-0.68-4.174-1.964c-0.866-0.89-1.502-2-1.945-3.394c-0.104-0.33-0.287-0.658-0.514-0.922   C18.958,21.663,18.325,19.966,18.482,18.095z"/>
        <path d="M60.202,52.927l0.001-3.013l-2.327-0.568c-0.184-0.825-0.476-1.61-0.86-2.339l1.405-1.938l-1.951-2.296l-2.143,1.075   c-1.06-0.799-2.293-1.381-3.633-1.68l-0.567-2.326h-3.013l-0.568,2.328c-1.272,0.285-2.447,0.825-3.47,1.564l-2.12-1.118   l-1.997,2.256l1.365,1.965c-0.43,0.777-0.754,1.621-0.953,2.512l-2.31,0.549l-0.017,3.013l2.327,0.582   c0.184,0.827,0.477,1.613,0.862,2.343l-1.404,1.915l1.939,2.307l2.151-1.065c1.061,0.801,2.295,1.383,3.637,1.682l0.55,2.309   L50.118,63l0.581-2.327c1.28-0.286,2.462-0.831,3.489-1.576l2.095,1.119l2.009-2.246l-1.36-1.98   c0.426-0.773,0.747-1.611,0.944-2.496L60.202,52.927z M48.623,56.75c-2.943,0-5.329-2.386-5.329-5.329   c0-2.943,2.386-5.329,5.329-5.329s5.329,2.386,5.329,5.329C53.952,54.364,51.566,56.75,48.623,56.75z"/>
        <path d="M35.651,57.856l1.683-2.295l-2.801-0.7l0.038-6.941l2.819-0.67c0.02-0.055,0.041-0.109,0.062-0.163l-1.668-2.401l4.6-5.197   l2.59,1.365c0.479-0.257,0.974-0.479,1.481-0.668l0.34-1.394c-1.685-1.359-3.806-2.307-6.379-2.838   c-1.406-0.29-3.298-2.407-4.104-4.13l-0.429,0.32c-2.021,1.63-4.352,2.487-6.824,2.494c-2.472-0.007-4.802-0.864-6.824-2.494   l0.626,0.507c-0.361-0.253-0.713-0.528-1.055-0.827c-0.806,1.723-2.697,3.84-4.104,4.13C9.51,37.231,5.791,40.786,5.015,47.198   l-1.21,11.845c-0.039,0.755,0.052,0.885,0.749,1.155c0.331,0.127,0.664,0.251,1.001,0.361c3.069,1.008,6.24,1.541,9.44,1.808   c4.022,0.336,8.058,0.509,10.133,0.634c5.733-0.05,10.141-0.203,14.292-0.658L35.651,57.856z"/>
    </g>
</svg>