<svg width="64" height="64"
    xmlns="http://www.w3.org/2000/svg" xml:space="preserve" version="1.1">

    <g>
        <title>Layer 1</title>
        <path fill="#fff" id="svg_1" d="m16.6,34.9c-1.6,-1.6 -4.1,-1.6 -5.7,0s-1.6,4.1 0,5.7l6,5.6c-1.1,0.8 -2.7,0.7 -3.7,-0.3l-3.7,-3.9c-2.4,-2.4 -2.4,-6.2 0,-8.5c0.3,-0.3 0.5,-0.4 0.5,-0.4l0,-16.9c0,-2.1 -1.5,-3.9 -3.6,-4.1c-2.4,-0.3 -4.4,1.6 -4.4,3.9l0,14.1l0,0.9l0,1l0,0c0,1.3 0.3,2.6 1,3.7l0.7,1.3l8.3,15l0,10l16,0l0,-10l0,0c0,-3.8 -1.6,-7.5 -4.3,-10.2l-7.1,-6.9z"/>
        <path fill="#fff" id="svg_2" d="m47.4,34.9c1.6,-1.6 4.1,-1.6 5.7,0c1.6,1.6 1.6,4.1 0,5.7l-6,5.6c1.1,0.8 2.7,0.7 3.7,-0.3l3.7,-3.8c2.4,-2.4 2.4,-6.2 0,-8.5c-0.3,-0.3 -0.5,-0.4 -0.5,-0.4l0,-16.9c0,-2.1 1.5,-3.9 3.6,-4.1c2.4,-0.2 4.4,1.6 4.4,4l0,14.1l0,0.7l0,1l0,0c0,1.3 -0.3,2.6 -1,3.7l-0.7,1.3l-8.3,15l0,10l-16,0l0,-10l0,0c0,-3.8 1.6,-7.5 4.3,-10.2l7.1,-6.9z"/>
        <polygon fill="#fff" id="svg_3" points="31,16.7 31,31.5 18,25 18,11.1 "/>
        <polygon fill="#fff" id="svg_4" points="46,11.1 46,25 33,31.5 33,16.7 "/>
        <polygon fill="#fff" id="svg_5" points="44.9,9.4 32,14.9 19.1,9.4 32,3.9 "/>
    </g>
</svg>