<?xml version="1.0" encoding="utf-8"?>
<svg id="master-artboard" viewBox="0 0 767.3394165039062 965.3211059570312" version="1.1" xmlns="http://www.w3.org/2000/svg" x="0px" y="0px" style="enable-background:new 0 0 336 235.2;" width="767.3394165039062px" height="965.3211059570312px"><rect id="ee-background" x="0" y="0" width="767.3394165039062" height="965.3211059570312" style="fill: white; fill-opacity: 0; pointer-events: none;"/><title>Artboard 22</title><title>Layer 1</title><path id="svg_1" d="m93.03733,29.41454l-16,0a2,2 0 0 0 -1.4141,3.4141l5.8789,5.8789l-24.4648,24.4648l-24.4648,-24.4648l5.8789,-5.8789a2,2 0 0 0 -1.4141,-3.4141l-16,0a1.9988,1.9988 0 0 0 -2,2l0,16a2,2 0 0 0 3.4141,1.4141l5.8789,-5.8789l25.707,25.707l0,37.7578a3,3 0 0 0 6,0l0,-37.7578l25.707,-25.707l5.8789,5.8789a2,2 0 0 0 3.4141,-1.4141l0,-16a1.9988,1.9988 0 0 0 -2,-2z" transform="matrix(8.90909194946289, 0, 0, 8.90909194946289, -126.25191497802729, -10.275230407714844)" style="fill: rgb(255, 255, 255);"/><path stroke="null" id="svg_2" d="m38.98561,5.80659c-0.00331,-0.00952 -0.00455,-0.01945 -0.00869,-0.02856a0.41388,0.41388 0 0 0 -0.06953,-0.10927l-3.72495,-4.13883a0.41388,0.41388 0 0 0 -0.30752,-0.137l-16.55534,0a0.41388,0.41388 0 0 0 -0.30752,0.137l-3.72495,4.13883a0.41388,0.41388 0 0 0 -0.06953,0.10927c-0.00414,0.00911 -0.00538,0.01904 -0.00869,0.02856a0.40105,0.40105 0 0 0 -0.02359,0.11713c0,0.00745 -0.00455,0.01407 -0.00455,0.02194l0,19.8664a0.41388,0.41388 0 0 0 0.41388,0.41388l24.00524,0a0.41388,0.41388 0 0 0 0.41388,-0.41388l0,-19.8664c0,-0.00786 -0.00414,-0.01449 -0.00455,-0.02194a0.40105,0.40105 0 0 0 -0.02359,-0.11713zm-1.31491,-0.27482l-8.25077,0l-0.66221,-3.31107l5.93302,0l2.97996,3.31107zm-13.14287,0.82777l4.13883,0l0,1.0703l-0.12127,-0.12127a0.41388,0.41388 0 0 0 -0.56205,-0.02152l-0.55336,0.47472l-0.5575,-0.49666a0.41388,0.41388 0 0 0 -0.5724,0.02111l-0.53515,0.55212l-0.5306,-0.5306a0.41388,0.41388 0 0 0 -0.58523,0l-0.12127,0.1221l0,-1.0703zm3.38557,-4.13883l0.66221,3.31107l-3.95673,0l0.66221,-3.31107l2.6323,0zm-9.40964,0l5.93302,0l-0.66221,3.31107l-8.25077,0l2.97996,-3.31107zm6.02407,23.17747l0,-1.0703l0.12127,0.12127a0.41388,0.41388 0 0 0 0.58523,0l0.5306,-0.5306l0.53515,0.55212a0.41388,0.41388 0 0 0 0.5724,0.02111l0.5575,-0.49666l0.55336,0.47472a0.41388,0.41388 0 0 0 0.56205,-0.02152l0.12127,-0.12044l0,1.0703l-4.13883,0zm13.65815,0l-8.69155,0l0,-2.06942a0.41388,0.41388 0 0 0 -0.7065,-0.29262l-0.55667,0.55667l-0.53805,-0.46065a0.41388,0.41388 0 0 0 -0.54467,0.00497l-0.53143,0.47265l-0.55046,-0.57075a0.41388,0.41388 0 0 0 -0.29386,-0.12417l-0.00331,0a0.41388,0.41388 0 0 0 -0.29262,0.12127l-0.53515,0.53515l-0.53515,-0.53515a0.41388,0.41388 0 0 0 -0.7065,0.29262l0,2.06942l-8.69155,0l0,-19.03864l8.69155,0l0,2.06942a0.41388,0.41388 0 0 0 0.7065,0.29262l0.53515,-0.53515l0.53515,0.53515a0.41388,0.41388 0 0 0 0.29262,0.12127l0.00331,0a0.41388,0.41388 0 0 0 0.29386,-0.12417l0.55171,-0.56909l0.53143,0.47265a0.41388,0.41388 0 0 0 0.54467,0.00497l0.53805,-0.46065l0.55667,0.55667a0.41388,0.41388 0 0 0 0.70526,-0.29427l0,-2.06942l8.69155,0l0,19.03864z" transform="matrix(8.90909194946289, 0, 0, 8.90909194946289, -126.25191497802729, -10.275230407714844)" style="fill: rgb(255, 255, 255);"/><path stroke="null" id="svg_6" d="m100.08581,5.80659c-0.00331,-0.00952 -0.00455,-0.01945 -0.00869,-0.02855a0.41388,0.41388 0 0 0 -0.06953,-0.10927l-3.72495,-4.13883a0.41388,0.41388 0 0 0 -0.30752,-0.137l-16.55534,0a0.41388,0.41388 0 0 0 -0.30751,0.137l-3.72495,4.13883a0.41388,0.41388 0 0 0 -0.06954,0.10927c-0.00413,0.0091 -0.00538,0.01903 -0.00869,0.02855a0.40105,0.40105 0 0 0 -0.02359,0.11713c0,0.00745 -0.00455,0.01408 -0.00455,0.02194l0,19.8664a0.41388,0.41388 0 0 0 0.41388,0.41389l24.00524,0a0.41388,0.41388 0 0 0 0.41388,-0.41389l0,-19.8664c0,-0.00786 -0.00413,-0.01449 -0.00455,-0.02194a0.40105,0.40105 0 0 0 -0.02359,-0.11713zm-1.31491,-0.27481l-8.25076,0l-0.66222,-3.31107l5.93302,0l2.97996,3.31107zm-13.14287,0.82776l4.13884,0l0,1.07031l-0.12127,-0.12127a0.41388,0.41388 0 0 0 -0.56205,-0.02152l-0.55336,0.47472l-0.55751,-0.49666a0.41388,0.41388 0 0 0 -0.5724,0.02111l-0.53515,0.55212l-0.5306,-0.5306a0.41388,0.41388 0 0 0 -0.58523,0l-0.12127,0.1221l0,-1.07031zm3.38557,-4.13883l0.66221,3.31107l-3.95672,0l0.66221,-3.31107l2.6323,0zm-9.40964,0l5.93302,0l-0.66221,3.31107l-8.25077,0l2.97996,-3.31107zm6.02407,23.17747l0,-1.0703l0.12127,0.12127a0.41388,0.41388 0 0 0 0.58523,0l0.5306,-0.5306l0.53515,0.55212a0.41388,0.41388 0 0 0 0.5724,0.02111l0.55751,-0.49667l0.55336,0.47473a0.41388,0.41388 0 0 0 0.56205,-0.02152l0.12127,-0.12044l0,1.0703l-4.13884,0zm13.65816,0l-8.69155,0l0,-2.06942a0.41388,0.41388 0 0 0 -0.7065,-0.29261l-0.55668,0.55667l-0.53804,-0.46065a0.41388,0.41388 0 0 0 -0.54468,0.00496l-0.53142,0.47266l-0.55047,-0.57075a0.41388,0.41388 0 0 0 -0.29385,-0.12416l-0.00332,0a0.41388,0.41388 0 0 0 -0.29261,0.12127l-0.53515,0.53515l-0.53515,-0.53515a0.41388,0.41388 0 0 0 -0.7065,0.29261l0,2.06942l-8.69155,0l0,-19.03864l8.69155,0l0,2.06942a0.41388,0.41388 0 0 0 0.7065,0.29262l0.53515,-0.53516l0.53515,0.53516a0.41388,0.41388 0 0 0 0.29261,0.12126l0.00332,0a0.41388,0.41388 0 0 0 0.29385,-0.12416l0.55171,-0.56909l0.53143,0.47265a0.41388,0.41388 0 0 0 0.54467,0.00497l0.53805,-0.46065l0.55667,0.55667a0.41388,0.41388 0 0 0 0.70526,-0.29427l0,-2.06942l8.69155,0l0,19.03864z" transform="matrix(8.90909194946289, 0, 0, 8.90909194946289, -126.25191497802729, -10.275230407714844)" style="fill: rgb(255, 255, 255);"/></svg>