<?xml version="1.0" encoding="utf-8"?>
<svg id="master-artboard" viewBox="0 0 767.3394165039062 965.3211059570312" version="1.1" xmlns="http://www.w3.org/2000/svg" x="0px" y="0px" style="enable-background:new 0 0 336 235.2;" width="767.3394165039062px" height="965.3211059570312px"><rect id="ee-background" x="0" y="0" width="767.3394165039062" height="965.3211059570312" style="fill: rgb(21, 21, 21); fill-opacity: 0; pointer-events: none;"/><title>Artboard 22</title><title>Layer 1</title><path id="svg_1" d="m93.03733,29.41454l-16,0a2,2 0 0 0 -1.4141,3.4141l5.8789,5.8789l-24.4648,24.4648l-24.4648,-24.4648l5.8789,-5.8789a2,2 0 0 0 -1.4141,-3.4141l-16,0a1.9988,1.9988 0 0 0 -2,2l0,16a2,2 0 0 0 3.4141,1.4141l5.8789,-5.8789l25.707,25.707l0,37.7578a3,3 0 0 0 6,0l0,-37.7578l25.707,-25.707l5.8789,5.8789a2,2 0 0 0 3.4141,-1.4141l0,-16a1.9988,1.9988 0 0 0 -2,-2z" transform="matrix(9.821004867553711, 0, 0, 9.821004867553711, -180.13655090332034, -25.134872436523438)" style="fill: rgb(255, 255, 255);"/><path d="M 18.52534294128418 41.6533203125 L 16.38534164428711 36.20331954956055 L 9.52534294128418 36.20331954956055 L 7.415342807769775 41.6533203125 L 5.395342826843262 41.6533203125 L 12.165342330932617 24.453319549560547 L 13.845342636108398 24.453319549560547 L 20.585342407226562 41.6533203125 L 18.52534294128418 41.6533203125 M 15.765342712402344 34.41332244873047 L 13.77534294128418 29.103321075439453 C 13.515342712402344 28.42998695373535 13.248676300048828 27.606653213500977 12.975342750549316 26.633319854736328 C 12.802009582519531 27.379985809326172 12.555342674255371 28.203319549560547 12.235342979431152 29.103321075439453 L 10.225342750549316 34.41332244873047 L 15.765342712402344 34.41332244873047 Z" transform="matrix(11.747821807861328, 0, 0, 11.747821807861328, -58.100921630859375, -272.9539489746094)" style="fill: rgb(255, 255, 255); white-space: pre; color: rgb(255, 255, 255);"/><path d="M 7.755342483520508 24.5233211517334 L 12.595342636108398 24.5233211517334 C 14.86867618560791 24.5233211517334 16.512008666992188 24.863319396972656 17.52534294128418 25.543319702148438 C 18.538677215576172 26.22332000732422 19.04534149169922 27.296653747558594 19.04534149169922 28.763320922851562 C 19.04534149169922 29.776653289794922 18.762008666992188 30.613319396972656 18.195343017578125 31.273319244384766 C 17.628677368164062 31.933319091796875 16.80200958251953 32.363319396972656 15.71534252166748 32.56332015991211 L 15.71534252166748 32.67332077026367 C 18.322010040283203 33.11998748779297 19.625343322753906 34.48665237426758 19.625343322753906 36.773319244384766 C 19.625343322753906 38.3066520690918 19.105342864990234 39.503318786621094 18.06534194946289 40.363319396972656 C 17.03200912475586 41.22332000732422 15.585342407226562 41.6533203125 13.725342750549316 41.6533203125 L 7.755342483520508 41.6533203125 L 7.755342483520508 24.5233211517334 M 9.745342254638672 31.853321075439453 L 13.02534294128418 31.853321075439453 C 14.43200969696045 31.853321075439453 15.442009925842285 31.633319854736328 16.055343627929688 31.193321228027344 C 16.675342559814453 30.753320693969727 16.98534393310547 30.009986877441406 16.98534393310547 28.963321685791016 C 16.98534393310547 28.003320693969727 16.642009735107422 27.309986114501953 15.955343246459961 26.883319854736328 C 15.268675804138184 26.456653594970703 14.175342559814453 26.24332046508789 12.675342559814453 26.24332046508789 L 9.745342254638672 26.24332046508789 L 9.745342254638672 31.853321075439453 M 9.745342254638672 33.54331970214844 L 9.745342254638672 39.95331954956055 L 13.315342903137207 39.95331954956055 C 14.702009201049805 39.95331954956055 15.742009162902832 39.68665313720703 16.43534278869629 39.1533203125 C 17.13534164428711 38.61998748779297 17.48534393310547 37.77998733520508 17.48534393310547 36.63331985473633 C 17.48534393310547 35.57331848144531 17.128677368164062 34.79331970214844 16.41534423828125 34.29331970214844 C 15.702009201049805 33.79331970214844 14.61534309387207 33.54331970214844 13.155343055725098 33.54331970214844 L 9.745342254638672 33.54331970214844 Z" transform="matrix(11.747821807861328, 0, 0, 11.747821807861328, 516.4288330078125, -271.6627197265625)" style="fill: rgb(255, 255, 255); white-space: pre; color: rgb(255, 255, 255);"/></svg>