<?xml version="1.0" encoding="utf-8"?>
<svg id="master-artboard" viewBox="0 0 100 100" version="1.1" xmlns="http://www.w3.org/2000/svg" x="0px" y="0px" style="enable-background:new 0 0 1400 980;" width="100px" height="100px"><g transform="matrix(6.1360581191515635, 0, 0, 6.1360581191515635, 4.727305710134864, -5.23610708569322e-7)"><rect id="ee-background" x="0" y="0" width="14.756278991699219" height="16.297107696533203" style="fill: white; fill-opacity: 0; pointer-events: none;"/><title>subscribe</title><path d="M53.49449,87.53138H37.51654A2.11973,2.11973,0,0,0,35.48612,90.297a10.57,10.57,0,0,0,20.03878,0A2.11972,2.11972,0,0,0,53.49449,87.53138Z" transform="matrix(0.16589617729187012, 0, 0, 0.16589617729187012, -0.8333358565978415, -0.2199571281671524)" style="fill: rgb(255, 255, 255);"/><path d="M74.52968,66.31337V48.61057l-.04017.001A22.49623,22.49623,0,0,1,55.853,13.51866a28.86508,28.86508,0,0,0-3.61842-1.13924V9.29048a6.79044,6.79044,0,1,0-13.58088,0v3.06258A29.25173,29.25173,0,0,0,16.24508,40.69615V66.217h-.05077l-9.816,9.175c-2.11345,2.91726.21073,6.78246,4.07833,6.78246H81.459c3.995,0,6.29039-4.09364,3.91911-6.98915Z" transform="matrix(0.16589617729187012, 0, 0, 0.16589617729187012, -0.8333358565978415, -0.2199571281671524)" style="fill: rgb(255, 255, 255);"/><path d="M 94.421062 26.117491 A 19.93153 19.93153 0 0 1 74.489532 46.049021 A 19.93153 19.93153 0 0 1 54.558002 26.117491 A 19.93153 19.93153 0 0 1 74.489532 6.185961 A 19.93153 19.93153 0 0 1 94.421062 26.117491 Z" transform="matrix(0.16589617729187012, 0, 0, 0.16589617729187012, -0.8333358565978415, -0.2199571281671524)" style="fill: rgb(255, 255, 255);"/></g></svg>