<?xml version="1.0" encoding="utf-8"?>
<svg id="master-artboard" viewBox="0 0 500 500" xmlns="http://www.w3.org/2000/svg" width="500px" height="500px" version="1.1" style="shape-rendering:geometricPrecision; text-rendering:geometricPrecision; image-rendering:optimizeQuality; fill-rule:evenodd; clip-rule:evenodd"><g transform="matrix(1.3608865737915037, 0, 0, 1.3608865737915037, -90.22092437744139, 17.36745452880859)"><path d="M82.533,26.003l-14.981,9.092L28.096,24.431l-11.044,5.501l29.202,15.773l-15.881,7.912l-17.092-9.911l-5.761,2.869  l10.647,13.974c-1.338,1.721-1.763,3.861-0.87,5.651c1.336,2.683,4.2,1.768,7.48,0.133l62.597-30.609  c3.281-1.635,4.857-5.137,3.521-7.821C89.558,25.22,85.813,24.368,82.533,26.003z" transform="matrix(4, 0, 0, 4, 50.00000000000006, 0.000003943609499401646)"/><path d="M 4.166 83.335999 H 95.833 V 88.668999 H 4.166 V 83.335999 Z" transform="matrix(4, 0, 0, 4, 50.00000000000006, 0.000003943609499401646)"/></g></svg>