<svg width="32" height="24"
    xmlns="http://www.w3.org/2000/svg" data-name="Layer 3">
    <title>shipping icon line</title>

    <g>
        <title>Layer 1</title>
        <path fill="#fff" id="svg_1" d="m24.55,17.59l-17.1,0a0.5,0.5 0 0 1 -0.5,-0.5l0,-15a0.5,0.5 0 0 1 0.5,-0.5l17.1,0a0.5,0.5 0 0 1 0.5,0.5l0,15a0.5,0.5 0 0 1 -0.5,0.5zm-16.6,-1l16.1,0l0,-14l-16.1,0l0,14z"/>
        <path fill="#fff" id="svg_2" d="m18.62,9.38a0.5,0.5 0 0 1 -0.29,-0.09l-2.33,-1.67l-2.33,1.67a0.5,0.5 0 0 1 -0.79,-0.41l0,-6.76a0.5,0.5 0 0 1 0.5,-0.5l5.24,0a0.5,0.5 0 0 1 0.5,0.5l0,6.76a0.5,0.5 0 0 1 -0.5,0.5zm-2.62,-2.88a0.5,0.5 0 0 1 0.29,0.09l1.83,1.31l0,-5.28l-4.24,0l0,5.29l1.83,-1.31a0.5,0.5 0 0 1 0.29,-0.1z"/>
        <path fill="#fff" id="svg_3" d="m29.69,21.49l-27.38,0a0.5,0.5 0 0 1 0,-1l27.38,0a0.5,0.5 0 0 1 0,1z"/>
        <circle fill="#fff" transform="rotate(-87.78 -18.09 27.17)" id="svg_4" r="0.89" cy="52.16" cx="-10.93"/>
        <path fill="#fff" id="svg_5" d="m7.15,22.38l-0.05,0a1.4,1.4 0 0 1 -1.34,-1.45a1.38,1.38 0 0 1 0.45,-1a1.43,1.43 0 0 1 1,-0.37a1.4,1.4 0 0 1 1.34,1.44l0,0a1.4,1.4 0 0 1 -1.4,1.38zm0,-1.79a0.39,0.39 0 0 0 0,0.79a0.37,0.37 0 0 0 0.4,-0.38l0,0a0.39,0.39 0 0 0 -0.38,-0.41l-0.02,0z"/>
        <circle fill="#fff" transform="rotate(-87.78 -9.59 36.01)" id="svg_6" r="0.89" cy="61" cx="6.41"/>
        <path fill="#fff" id="svg_7" d="m16,22.38l-0.05,0a1.4,1.4 0 0 1 -1.34,-1.45a1.38,1.38 0 0 1 0.45,-1a1.43,1.43 0 0 1 1,-0.37a1.39,1.39 0 0 1 -0.06,2.82zm0,-1.79a0.39,0.39 0 0 0 0,0.79a0.38,0.38 0 0 0 0.41,-0.38a0.39,0.39 0 0 0 -0.38,-0.41l-0.03,0z"/>
        <circle fill="#fff" transform="rotate(-87.78 -0.25 45.47)" id="svg_8" r="1.8" cy="70.34" cx="25.33"/>
        <path fill="#fff" id="svg_9" d="m25.59,23.16l-0.09,0a2.3,2.3 0 0 1 -2.21,-2.39a2.33,2.33 0 0 1 2.38,-2.21a2.3,2.3 0 0 1 -0.09,4.59l0.01,0.01zm0,-3.59a1.3,1.3 0 0 0 -1,2.18a1.29,1.29 0 0 0 0.9,0.42a1.32,1.32 0 0 0 0.93,-0.34a1.3,1.3 0 0 0 -0.83,-2.25l0,-0.01z"/>
        <path fill="#fff" id="svg_11" d="m21.46,12.83l-10.92,0a0.5,0.5 0 0 1 0,-1l10.92,0a0.5,0.5 0 0 1 0,1z"/>
        <path fill="#fff" id="svg_12" d="m18.73,15.08l-5.46,0a0.5,0.5 0 0 1 0,-1l5.46,0a0.5,0.5 0 0 1 0,1z"/>
    </g>
</svg>