<svg xmlns="http://www.w3.org/2000/svg"
    xmlns:xlink="http://www.w3.org/1999/xlink" version="1.1" x="0px" y="0px" viewBox="0 0 140 175" style="enable-background:new 0 0 140 140;" xml:space="preserve">
    <path d="M106.6020508,46.6357422c-2.1153564-2.1152344-4.4042358-4.0290527-6.8014526-5.7143555  c0.3067017-1.9306641,0.4694214-3.8173828,0.4694214-5.6538086C100.2700195,18.578125,86.6918945,5,70.0024414,5  S39.7348633,18.578125,39.7348633,35.2675781c0,1.8364258,0.1627197,3.7233887,0.4694214,5.6538086  c-2.3972168,1.6853027-4.6860962,3.5991211-6.8014526,5.7143555c-15.5458374,15.5463867-19.5825806,39.260498-10.0617676,59.0395508  c0.0090942,0.0236816,0.0202026,0.0446777,0.0310059,0.0673828c0.0027466,0.0058594,0.0050659,0.0114746,0.0078125,0.0170898  c2.5073242,5.203125,5.8764648,9.9384766,10.0126953,14.0751953c6.6816406,6.6816406,15.0356445,11.4042969,24.159668,13.65625  c4.1923828,1.0332031,8.4160156,1.5390625,12.5917969,1.5390625c13.5361328,0,26.5751953-5.3125,36.4580078-15.1953125  c9.7773438-9.7724609,15.1616211-22.7685547,15.1601562-36.5957031  C121.7612305,69.4150391,116.3769531,56.4160156,106.6020508,46.6357422z M70.0024414,7  c15.5869141,0,28.2675781,12.6806641,28.2675781,28.2675781c0,21.8896484-23.8989258,46.1162109-28.2675781,50.3603516  c-4.3686523-4.2441406-28.2675781-28.4707031-28.2675781-50.3603516C41.7348633,19.6806641,54.4155273,7,70.0024414,7z   M92.4736938,60.2988281c0.847229,0.3183594,1.762146,0.3867188,2.7387085,0.1835938  c3.6894531-0.7822266,7.2275391,3.5830078,9.0092773,6.2509766c1.5810547,2.3769531,2.3374023,4.9931641,2.1870117,7.5625  c-0.1044922,1.6904297-0.5532227,2.8730469-1.3339844,3.5146484c-0.6542969,0.5380859-1.6113281,0.7265625-2.8505859,0.5605469  c-3.3427734-0.4453125-6.0576172-0.6171875-8.5390625-0.5498047c-3.0551758,0.1096191-7.1688232-0.7138672-9.715271-4.8886719  c0.4888306-0.6318359,0.9790649-1.2758789,1.4691772-1.9355469C88.1605835,67.3334961,90.4971313,63.7678223,92.4736938,60.2988281z   M34.8168945,48.0498047c1.8131104-1.8127441,3.7596436-3.4680176,5.7912598-4.9560547  c1.8182983,8.4980469,6.4862061,17.8461914,13.9577637,27.9033203c2.3930054,3.2211914,4.7922974,6.1162109,6.9455566,8.5666504  c-0.5581665,0.3513184-1.2032471,0.6806641-1.9699707,0.9909668c-1.6762695,0.671875-3.6572266,0.7958984-5.7319336,0.3603516  c-1.8178711-0.3740234-4.4995117-0.4765625-6.9624023,1.1689453c-2.5229492,1.6855469-4.2397461,4.8212891-5.1020508,9.3212891  c-2.2207642,11.6264648-13.8984375,12.7792969-16.8311768,12.902832  C16.065918,85.3942871,20.0016479,62.8649902,34.8168945,48.0498047z M105.1879883,118.4208984  c-12.0592041,12.059082-29.0072021,17.0126953-45.6141968,13.4572754c2.0633545-2.9084473,2.6488037-6.6228027,1.5223999-10.0979004  c-1.2509766-3.8613281-4.3261719-6.7910156-8.2260742-7.8369141c-0.9086914-0.2441406-1.6049805-0.8945312-1.9106445-1.7861328  c-0.3022461-0.8818359-0.1542969-1.8115234,0.4057617-2.5507812c3.7993164-5.0175781,9.1655273-8.6044922,15.9492188-10.6611328  c7.4746094-2.2675781,10.3076172-1.4140625,11.3671875-0.2949219c1.3330078,1.4072266,0.7128906,4.1796875-0.0419922,6.2587891  c-0.8056641,2.21875-0.2290039,4.6132812,1.5048828,6.2470703c1.7353516,1.6367188,4.1635742,2.0712891,6.3359375,1.1337891  c2.6396484-1.1386719,4.9462891-3.1347656,6.8554688-5.9306641c5.3397827-7.8112793,17.5066528-1.6254883,20.6639404,0.1687012  C111.7027588,110.8535156,108.7503052,114.8605957,105.1879883,118.4208984z M106.7021484,101.2919922  c-6.7993164-1.8505859-11.9916992-0.4892578-15.0175781,3.9394531c-1.6923828,2.4785156-3.7099609,4.2353516-5.996582,5.2226562  c-1.7084961,0.734375-3.2739258,0.0927734-4.171875-0.7529297c-0.8964844-0.8447266-1.6289062-2.3681641-0.996582-4.109375  C81.8974609,101.7978516,81.7675781,99,80.1333008,97.2753906c-2.1328125-2.2529297-6.5166016-2.3320312-13.3994141-0.2441406  c-7.1962891,2.1826172-12.9033203,6.0068359-16.9633789,11.3681641c-0.9541016,1.2597656-1.2167969,2.9072266-0.7026367,4.40625  c0.5170898,1.5087891,1.7451172,2.65625,3.2841797,3.0693359c3.2426758,0.8701172,5.800293,3.3085938,6.8417969,6.5224609  c1.0078125,3.1103516,0.4267578,6.3232422-1.5947266,8.8134766c-0.0473633,0.0583496-0.1011353,0.1157227-0.1499023,0.1738281  c-8.5410767-2.2202148-16.3624268-6.6835938-22.6425781-12.9638672c-3.6102905-3.6108398-6.6043091-7.6987305-8.9301758-12.1630859  c4.2541504-0.3417969,15.5250854-2.3918457,17.8330078-14.4765625c0.7578125-3.9541016,2.1870117-6.6572266,4.2485352-8.0341797  c1.8876953-1.2626953,4.0043945-1.1708984,5.4443359-0.8740234c2.4604492,0.5166016,4.8393555,0.3554688,6.8862305-0.4628906  c1.0032959-0.40625,1.8494873-0.847168,2.5714722-1.333252c3.7216187,4.1171875,6.4193726,6.6281738,6.4636841,6.6691895  c0.1914062,0.1767578,0.4350586,0.265625,0.6787109,0.265625s0.4873047-0.0888672,0.6787109-0.265625  c0.0643311-0.0595703,5.7039795-5.2993164,11.9819336-13.1508789c3.0463867,4.4504395,7.640564,5.3354492,11.0791016,5.2260742  c2.3740234-0.0683594,4.984375,0.1005859,8.2167969,0.5322266c0.3798828,0.0507812,0.7456055,0.0761719,1.0961914,0.0761719  c1.3164062,0,2.4194336-0.359375,3.2895508-1.0742188c1.2270508-1.0087891,1.9204102-2.6689453,2.0605469-4.9394531  c0.1757812-3.0097656-0.6948242-6.0488281-2.5195312-8.7919922c-2.5205078-3.7744141-6.4858398-8.0683594-11.0844727-7.0986328  c-0.4790039,0.0998535-0.9188232,0.0878906-1.3331909-0.0131836c2.9059448-5.4008789,4.8869019-10.5498047,5.9286499-15.418457  c2.0315552,1.4880371,3.9780884,3.1433105,5.7907715,4.9560547c9.3974609,9.4023438,14.5737305,21.8994141,14.574707,35.1894531  c0.0008545,7.5666504-1.6810913,14.8720703-4.8594971,21.4968262  C113.4140015,103.888916,110.3063354,102.2731934,106.7021484,101.2919922z"/>
    <path d="M69.0024414,56.4169922c0,0.5527344,0.4477539,1,1,1s1-0.4472656,1-1v-2.2941895  c9.6992188-0.5119629,17.4793701-8.2905273,17.9824829-17.9821777h2.293396c0.5522461,0,1-0.4472656,1-1s-0.4477539-1-1-1  h-2.2943115c-0.512146-9.6928711-8.2885132-17.4689941-17.9815674-17.980957v-2.2944336c0-0.5527344-0.4477539-1-1-1  s-1,0.4472656-1,1v2.293457c-9.6915894,0.5029297-17.4692993,8.2827148-17.9811401,17.9819336h-2.2947388  c-0.5522461,0-1,0.4472656-1,1s0.4477539,1,1,1h2.2938232c0.5029907,9.6977539,8.2843018,17.4799805,17.9820557,17.9829102  V56.4169922z M53.0203857,36.140625h2.1934814c0.5522461,0,1-0.4472656,1-1s-0.4477539-1-1-1h-2.1925659  c0.5068359-8.5966797,7.3921509-15.4836426,15.9811401-15.9819336v2.1938477c0,0.5527344,0.4477539,1,1,1s1-0.4472656,1-1V18.159668  c8.5906982,0.5068359,15.4744263,7.3901367,15.9815674,15.980957h-2.1925049c-0.5522461,0-1,0.4472656-1,1s0.4477539,1,1,1  h2.1934204c-0.4984131,8.5893555-7.3856812,15.4750977-15.9824829,15.9821777v-2.1931152c0-0.5527344-0.4477539-1-1-1  s-1,0.4472656-1,1v2.1938477C60.4073486,51.6254883,53.5184937,44.736084,53.0203857,36.140625z"/>
    <path d="M79.5415039,35.1503906c0-5.2646484-4.2832031-9.5478516-9.5483398-9.5478516  c-5.2548828,0-9.5297852,4.2832031-9.5297852,9.5478516c0,5.2548828,4.2749023,9.5292969,9.5297852,9.5292969  C75.2583008,44.6796875,79.5415039,40.4052734,79.5415039,35.1503906z M62.4633789,35.1503906  c0-4.1621094,3.3779297-7.5478516,7.5297852-7.5478516c4.1621094,0,7.5483398,3.3857422,7.5483398,7.5478516  c0,4.1513672-3.3862305,7.5292969-7.5483398,7.5292969C65.8413086,42.6796875,62.4633789,39.3017578,62.4633789,35.1503906z"/>
</svg>