<?xml version="1.0" encoding="utf-8"?>
<svg id="master-artboard" viewBox="0 0 100 100" version="1.1" xmlns="http://www.w3.org/2000/svg" x="0px" y="0px" style="enable-background:new 0 0 1400 980;" width="100px" height="100px"><g transform="matrix(0.10135216912154746, 0, 0, 0.10135216912154746, 0.0000022825729502073955, 0.0747833018547297)"><rect id="ee-background" x="0" y="0" width="986.6586303710938" height="985.1829833984375" style="fill: rgb(30, 30, 30); fill-opacity: 0; pointer-events: none;"/><title>delivery</title><title>Layer 1</title><path id="svg_2" d="m4.2331,13.97616a4.106,4.106 0 0 0 -4.1,4.1c0,3.053 3.6,6.683 3.748,6.837a0.5,0.5 0 0 0 0.707,0c0.153,-0.152 3.745,-3.782 3.745,-6.835a4.107,4.107 0 0 0 -4.1,-4.102zm0,9.856c-0.882,-0.97 -3.1,-3.625 -3.1,-5.754a3.1,3.1 0 0 1 6.2,0c0,2.127 -2.218,4.783 -3.1,5.754z" transform="matrix(39.20000076293945, 0, 0, 39.20000076293945, -1.2057952880859375, 0.0000012575266055137035)" style="fill: rgb(255, 255, 255);"/><path id="svg_3" d="m4.2331,16.13716a1.941,1.941 0 1 0 1.94,1.941a1.943,1.943 0 0 0 -1.94,-1.941zm0,2.882a0.941,0.941 0 1 1 0.94,-0.941a0.942,0.942 0 0 1 -0.94,0.941z" transform="matrix(39.20000076293945, 0, 0, 39.20000076293945, -1.2057952880859375, 0.0000012575266055137035)" style="fill: rgb(255, 255, 255);"/><path id="svg_4" d="m23.7201,0.06116l-7.208,0a1.415,1.415 0 0 0 -1.413,1.413l0,7.208a1.415,1.415 0 0 0 1.413,1.413l7.208,0a1.415,1.415 0 0 0 1.413,-1.413l0,-7.208a1.415,1.415 0 0 0 -1.413,-1.413zm0.413,1.413l0,0.846l-2.011,0l0,-1.259l1.6,0a0.414,0.414 0 0 1 0.411,0.413zm-5.022,-0.413l2.011,0l0,2.455l-0.783,-0.391a0.5,0.5 0 0 0 -0.447,0l-0.781,0.391l0,-2.455zm-2.6,0l1.6,0l0,1.259l-2.012,0l0,-0.846a0.414,0.414 0 0 1 0.413,-0.413l-0.001,0zm7.208,8.034l-7.207,0a0.413,0.413 0 0 1 -0.413,-0.413l0,-5.362l2.012,0l0,1a0.5,0.5 0 0 0 0.236,0.424a0.5,0.5 0 0 0 0.487,0.023l1.282,-0.641l1.283,0.641a0.5,0.5 0 0 0 0.723,-0.447l0,-1l2.011,0l0,5.362a0.413,0.413 0 0 1 -0.413,0.413l-0.001,0z" transform="matrix(39.20000076293945, 0, 0, 39.20000076293945, -1.2057952880859375, 0.0000012575266055137035)" style="fill: rgb(255, 255, 255);"/><path id="svg_5" d="m21.6221,7.58916l-3.011,0a0.5,0.5 0 0 0 0,1l3.011,0a0.5,0.5 0 0 0 0,-1z" transform="matrix(39.20000076293945, 0, 0, 39.20000076293945, -1.2057952880859375, 0.0000012575266055137035)" style="fill: rgb(255, 255, 255);"/><path id="svg_6" d="m17.1331,12.06116l-9,0a3,3 0 0 1 0,-6l5.009,0a0.5,0.5 0 0 0 0,-1l-5.009,0a4,4 0 0 0 0,8l9,0a3,3 0 0 1 0,6l-5.869,0l1.147,-1.146a0.5,0.5 0 0 0 -0.707,-0.708l-2,2a0.5,0.5 0 0 0 0,0.708l2,2a0.5,0.5 0 0 0 0.707,-0.708l-1.147,-1.146l5.869,0a4,4 0 0 0 0,-8z" transform="matrix(39.20000076293945, 0, 0, 39.20000076293945, -1.2057952880859375, 0.0000012575266055137035)" style="fill: rgb(255, 255, 255);"/></g></svg>