<?xml version="1.0" encoding="utf-8"?>
<svg id="master-artboard" viewBox="0 0 100 100" version="1.1" xmlns="http://www.w3.org/2000/svg" x="0px" y="0px" style="enable-background:new 0 0 1400 980;" width="100px" height="100px"><g transform="matrix(0.9999999237060547, 0, 0, 0.9999999237060547, 0.0000022825729502073955, 0.000003291086557055678)"><rect id="ee-background" x="0" y="0" width="100" height="100" style="fill: white; fill-opacity: 0; pointer-events: none;"/><g transform="matrix(0.406657981996995, 0, 0, 0.406657981996995, 13.136113600931203, -5.23610708569322e-7)"><path d="M 0 0 H 181.301666 V 245.906891 H 0 V 0 Z" id="rect-1" style="fill: white; fill-opacity: 0; pointer-events: none;"/><title>Layer 1</title><g transform="matrix(2.7369203567504883, 0, 0, 2.7369203567504883, -46.995304107666016, -5.144770622253419)"><g>
  <title>Layer 1</title>
  <path id="svg_1" d="m67.38587,1.28253l-50.2,0l0,90l66,0l0,-74.2l-15.8,-15.8zm10.8,85l-56,0l0,-80l42.2,0l0,14.8l13.8,0l0,65.2zm-3.3,-70.2l-5.5,0l0,-5.9l5.5,5.9z" style="stroke: rgb(255, 255, 255); fill: rgb(255, 255, 255);"/>
  <g stroke="null" id="svg_6" data-name="Layer 23">
   <path stroke="null" id="svg_5" d="m63.1476,55.61586l0,-1.42762a12.43085,12.43085 0 0 0 -24.85113,0l0,0.98347l-1.28486,0a9.22136,9.22136 0 0 0 0,18.44271l23.32834,0a9.21607,9.21607 0 0 0 2.80765,-17.97741l0,-0.02115zm-7.62983,2.87639a1.05749,1.05749 0 0 1 -1.49107,-0.12161l-2.17844,-2.56443l0,9.28481a1.05749,1.05749 0 0 1 -2.11499,0l0,-9.28481l-2.17844,2.56443a1.05749,1.05749 0 0 1 -1.61268,-1.36417l4.04492,-4.75873a1.05749,1.05749 0 0 1 1.58624,0l4.04492,4.75873a1.05749,1.05749 0 0 1 -0.10046,1.48578z" style="stroke: rgb(255, 255, 255); fill: rgb(255, 255, 255);"/>
  </g>
 </g></g></g></g></svg>