<svg xmlns="http://www.w3.org/2000/svg"
    xmlns:xlink="http://www.w3.org/1999/xlink" version="1.1" x="0px" y="0px" viewBox="0 0 100 125" style="enable-background:new 0 0 100 100;" xml:space="preserve">
    <g>
        <path d="M49,64.1c2.2,0,4-1.8,4-4V18.6l9.8,9.2c0.8,0.7,1.8,1.1,2.7,1.1c1.1,0,2.1-0.4,2.9-1.3c1.5-1.6,1.4-4.1-0.2-5.7l-17-16   c-1.6-1.5-4-1.4-5.6,0.1l-16,16c-1.6,1.6-1.6,4.1,0,5.7c1.6,1.6,4.1,1.6,5.7,0L45,18v42.1C45,62.3,46.8,64.1,49,64.1z"/>
        <path d="M18,40v48c0,2.2,1.8,4,4,4h54c2.2,0,4-1.8,4-4V40c0-2.2-1.8-4-4-4H64.5c-2.2,0-4,1.8-4,4s1.8,4,4,4H72v40H26V44h7.5   c2.2,0,4-1.8,4-4s-1.8-4-4-4H22C19.8,36,18,37.8,18,40z"/>
    </g>
</svg>