<?xml version="1.0" encoding="utf-8"?>
<svg id="master-artboard" viewBox="0 0 100 100" version="1.1" xmlns="http://www.w3.org/2000/svg" x="0px" y="0px" style="enable-background:new 0 0 1400 980;" width="100px" height="100px"><g transform="matrix(1.8423990491133089, 0, 0, 1.8423990491133089, 0.0000022825729502073955, 0.07304028952400188)"><rect id="ee-background" x="0" y="0" width="54.27705383300781" height="54.19776916503906" style="fill: white; fill-opacity: 0; pointer-events: none;"/><g transform="matrix(0.8453801870346068, 0, 0, 0.8453801870346068, -0.999996139432369, -1.1436157226562498)"><g>
  <title>Layer 1</title>
  <g id="svg_1">
   <path id="svg_2" d="m16.5,21.3l0,9.1l2,0l0,-9.1c1.4,-0.4 2.4,-1.4 2.8,-2.8l8.7,0l0,-2l-8.7,0c-0.4,-1.7 -2,-2.9 -3.8,-2.9c-2.1,0 -3.9,1.8 -3.9,3.9c0,1.8 1.2,3.3 2.9,3.8zm1,-5.7c1.1,0 1.9,0.9 1.9,1.9s-0.9,1.9 -1.9,1.9c-1,0 -1.9,-0.9 -1.9,-1.9s0.9,-1.9 1.9,-1.9z" style="fill: rgb(255, 255, 255);"/>
   <path id="svg_3" d="m49.5,44.7l0,-9.1l-2,0l0,9.1c-1.3,0.4 -2.4,1.4 -2.8,2.8l-8.7,0l0,2l8.7,0c0.4,1.7 1.9,2.9 3.8,2.9c2.2,0 3.9,-1.8 3.9,-3.9c0,-1.8 -1.2,-3.3 -2.9,-3.8zm-1,5.7c-1,0 -1.9,-0.9 -1.9,-1.9s0.9,-1.9 1.9,-1.9c1.1,0 1.9,0.9 1.9,1.9s-0.8,1.9 -1.9,1.9z" style="fill: rgb(255, 255, 255);"/>
   <path id="svg_4" d="m44.6,18.6l7.8,0l0,-5.4c-3.3,0 -5.3,0 -7.8,0l0,5.4z" style="fill: rgb(255, 255, 255);"/>
   <path id="svg_5" d="m50.8,8.8c0,-1.2 -1,-2.1 -2.1,-2.1s-2.1,1 -2.1,2.1l0,2.4l4.3,0l0,-2.4l-0.1,0z" style="fill: rgb(255, 255, 255);"/>
   <path id="svg_6" d="m62.4,1l-27.8,0c-1.4,0 -2.6,1.2 -2.6,2.6l0,18.7l33,0l0,-18.7c0,-1.4 -1.2,-2.6 -2.6,-2.6zm-8,18.6c0,0.5 -0.5,1 -1,1l-9.8,0c-0.6,0 -1,-0.5 -1,-1l0,-7.4c0,-0.5 0.4,-1 1,-1l0.9,0l0,-2.4c0,-2.3 1.9,-4.1 4.1,-4.1c2.3,0 4.1,1.9 4.1,4.1l0,2.4l0.6,0c0.5,0 1,0.5 1,1l0,7.4l0.1,0z" style="fill: rgb(255, 255, 255);"/>
   <path id="svg_7" d="m32,26.5c0,1.5 1.2,2.6 2.6,2.6l8.8,0l-1.3,3.2c-0.1,0.3 -0.1,0.7 0.1,0.9c0.2,0.3 0.5,0.4 0.8,0.4l10.8,0c0.3,0 0.6,-0.2 0.8,-0.4c0.2,-0.3 0.2,-0.6 0.1,-0.9l-1.3,-3.2l8.8,0c1.5,0 2.6,-1.2 2.6,-2.6l0,-2.1l-32.8,0l0,2.1z" style="fill: rgb(255, 255, 255);"/>
   <path d="M 18.8 39.799999 A 1.3 1.3 0 0 1 17.5 41.099999 A 1.3 1.3 0 0 1 16.2 39.799999 A 1.3 1.3 0 0 1 17.5 38.499999 A 1.3 1.3 0 0 1 18.8 39.799999 Z" id="svg_8" style="fill: rgb(255, 255, 255);"/>
   <path id="svg_9" d="m17.5,46.2c-2.1,0 -3.8,1.4 -4.3,3.3l8.7,0c-0.6,-1.9 -2.3,-3.3 -4.4,-3.3z" style="fill: rgb(255, 255, 255);"/>
   <path id="svg_10" d="m31.4,32.3l-27.8,0c-1.4,0 -2.6,1.2 -2.6,2.7l0,18.7l33,0l0,-18.7c0,-1.5 -1.2,-2.7 -2.6,-2.7zm-13.9,4.2c1.8,0 3.3,1.5 3.3,3.3s-1.5,3.2 -3.3,3.2s-3.3,-1.5 -3.3,-3.3s1.5,-3.2 3.3,-3.2zm6.2,14.7c-0.2,0.2 -0.4,0.3 -0.7,0.3l-11,0c-0.3,0 -0.5,-0.1 -0.7,-0.3c-0.2,-0.2 -0.3,-0.4 -0.3,-0.7c0.1,-3.5 3,-6.3 6.5,-6.3s6.4,2.8 6.5,6.3c0,0.3 -0.1,0.5 -0.3,0.7z" style="fill: rgb(255, 255, 255);"/>
   <path id="svg_11" d="m1,57.8c0,1.5 1.2,2.6 2.6,2.6l8.8,0l-1.3,3.2c-0.1,0.3 -0.1,0.7 0.1,0.9c0.2,0.3 0.5,0.4 0.8,0.4l10.8,0c0.3,0 0.6,-0.2 0.8,-0.4s0.2,-0.6 0.1,-0.9l-1.3,-3.2l8.8,0c1.5,0 2.6,-1.2 2.6,-2.6l0,-2.1l-32.8,0l0,2.1z" style="fill: rgb(255, 255, 255);"/>
  </g>
 </g></g></g></svg>