<?xml version="1.0" encoding="utf-8"?>
<svg id="master-artboard" viewBox="0 0 100 100" version="1.1" xmlns="http://www.w3.org/2000/svg" x="0px" y="0px" style="enable-background:new 0 0 1400 980;" width="100px" height="100px"><g transform="matrix(0.5530532319683629, 0, 0, 0.5530532319683629, 0.000002282572943101968, 11.404114353887188)"><rect id="ee-background" x="0" y="0" width="180.8144073486328" height="139.5738525390625" style="fill: white; fill-opacity: 0; pointer-events: none;"/><g transform="matrix(1.883483648300171, 0, 0, 1.883483648300171, 4.429261366567516e-7, 2.5170860290527344)"><title>2Artboard 60</title><g>
  <title>Layer 1</title>
  <path id="svg_1" d="m95.61144,34.60095c-7.72,-22.72 -27.56,-34 -47.39,-34c-20.46,0 -40.91,12 -48,35.7l0.59,1.73c7.72,22.72 27.56,34 47.39,34c20.46,0 40.91,-12 48,-35.7l-0.59,-1.73zm-47.41,25.43c-12.68,0 -28.34,-6.29 -35.27,-23.77c6.8,-17.34 22.41,-23.63 35.27,-23.63c12.68,0 28.34,6.29 35.27,23.77c-6.8,17.34 -22.41,23.63 -35.27,23.63zm15,-23.7a15,15 0 1 1 -15,-15a15,15 0 0 1 15,15z" style="fill: rgb(255, 255, 255);"/>
 </g></g></g></svg>